<svg xmlns="http://www.w3.org/2000/svg" xmlns:xlink="http://www.w3.org/1999/xlink" contentStyleType="text/css" data-diagram-type="DESCRIPTION" height="320px" preserveAspectRatio="none" style="width:312px;height:320px;background:#FFFFFF;" version="1.1" viewBox="0 0 312 320" width="312px" zoomAndPan="magnify"><defs/><g><!--cluster ??????--><g class="cluster" data-entity="......" data-source-line="4" data-uid="ent0003" id="cluster_......"><rect fill="none" height="307" rx="2.5" ry="2.5" style="stroke:#181818;stroke-width:1;" width="155.03" x="151" y="7"/><text fill="#000000" font-family="sans-serif" font-size="14" font-weight="bold" lengthAdjust="spacing" textLength="83.9996" x="186.5152" y="21.9951">&#36164;&#26009;&#20998;&#20139;&#24179;&#21488;</text></g><!--entity UC_LOGIN--><g class="entity" data-entity="UC_LOGIN" data-source-line="5" data-uid="ent0004" id="entity_UC_LOGIN"><ellipse cx="228.5078" cy="138.0036" fill="#F1F1F1" rx="42.5978" ry="14.5236" style="stroke:#181818;stroke-width:0.5;"/><text fill="#000000" font-family="sans-serif" font-size="14" lengthAdjust="spacing" textLength="55.9998" x="200.5079" y="142.6521">&#30331;&#24405;&#31995;&#32479;</text></g><!--entity UC_SEARCH--><g class="entity" data-entity="UC_SEARCH" data-source-line="6" data-uid="ent0005" id="entity_UC_SEARCH"><ellipse cx="228.5078" cy="57.0036" fill="#F1F1F1" rx="42.5978" ry="14.5236" style="stroke:#181818;stroke-width:0.5;"/><text fill="#000000" font-family="sans-serif" font-size="14" lengthAdjust="spacing" textLength="55.9998" x="200.5079" y="61.6521">&#25628;&#32034;&#25991;&#20214;</text></g><!--entity UC_DOWNLOAD_SINGLE--><g class="entity" data-entity="UC_DOWNLOAD_SINGLE" data-source-line="7" data-uid="ent0006" id="entity_UC_DOWNLOAD_SINGLE"><ellipse cx="228.5142" cy="219.0028" fill="#F1F1F1" rx="61.5142" ry="14.7028" style="stroke:#181818;stroke-width:0.5;"/><text fill="#000000" font-family="sans-serif" font-size="14" lengthAdjust="spacing" textLength="83.9996" x="186.5144" y="223.6513">&#19979;&#36733;&#21333;&#20010;&#25991;&#20214;</text></g><!--entity UC_DOWNLOAD_BULK--><g class="entity" data-entity="UC_DOWNLOAD_BULK" data-source-line="8" data-uid="ent0007" id="entity_UC_DOWNLOAD_BULK"><ellipse cx="228.5142" cy="283.0028" fill="#F1F1F1" rx="61.5142" ry="14.7028" style="stroke:#181818;stroke-width:0.5;"/><text fill="#000000" font-family="sans-serif" font-size="14" lengthAdjust="spacing" textLength="83.9996" x="186.5144" y="287.6513">&#25209;&#37327;&#19979;&#36733;&#25991;&#20214;</text></g><!--entity user--><g class="entity" data-entity="user" data-source-line="2" data-uid="ent0002" id="entity_user"><ellipse cx="19.9999" cy="155.35" fill="#F1F1F1" rx="8" ry="8" style="stroke:#181818;stroke-width:0.5;"/><path d="M19.9999,163.35 L19.9999,190.35 M6.9999,171.35 L32.9999,171.35 M19.9999,190.35 L6.9999,205.35 M19.9999,190.35 L32.9999,205.35" fill="none" style="stroke:#181818;stroke-width:0.5;"/><text fill="#000000" font-family="sans-serif" font-size="14" lengthAdjust="spacing" textLength="27.9999" x="6" y="219.8451">&#29992;&#25143;</text></g><!--link user to UC_LOGIN--><g class="link" data-entity-1="user" data-entity-2="UC_LOGIN" data-source-line="11" data-uid="lnk8" id="link_user_UC_LOGIN"><path d="M34.46,176.69 C42.7,171.97 53.63,166.35 64,163 C104.45,149.94 152.78,143.63 186.36,140.62" fill="none" id="user-UC_LOGIN" style="stroke:#181818;stroke-width:1;"/></g><!--link user to UC_SEARCH--><g class="link" data-entity-1="user" data-entity-2="UC_SEARCH" data-source-line="12" data-uid="lnk9" id="link_user_UC_SEARCH"><path d="M34.34,162.62 C41.92,151.38 52.24,138.23 64,129 C103.9,97.69 159.53,77.01 194.52,66.14" fill="none" id="user-UC_SEARCH" style="stroke:#181818;stroke-width:1;"/></g><!--link user to UC_DOWNLOAD_SINGLE--><g class="link" data-entity-1="user" data-entity-2="UC_DOWNLOAD_SINGLE" data-source-line="13" data-uid="lnk10" id="link_user_UC_DOWNLOAD_SINGLE"><path d="M34.16,187.54 C42.66,189.16 53.97,191.27 64,193 C101.39,199.45 143.7,206.16 175.91,211.15" fill="none" id="user-UC_DOWNLOAD_SINGLE" style="stroke:#181818;stroke-width:1;"/></g><!--link user to UC_DOWNLOAD_BULK--><g class="link" data-entity-1="user" data-entity-2="UC_DOWNLOAD_BULK" data-source-line="14" data-uid="lnk11" id="link_user_UC_DOWNLOAD_BULK"><path d="M34.28,194.28 C42.64,199.97 53.75,207.23 64,213 C97.95,232.11 107.19,235.64 143,251 C159.15,257.93 177.34,264.92 192.7,270.59" fill="none" id="user-UC_DOWNLOAD_BULK" style="stroke:#181818;stroke-width:1;"/></g><!--link UC_SEARCH to UC_LOGIN--><g class="link" data-entity-1="UC_SEARCH" data-entity-2="UC_LOGIN" data-source-line="16" data-uid="lnk12" id="link_UC_SEARCH_UC_LOGIN"><path d="M228.51,71.76 C228.51,86.34 228.51,102.53 228.51,117.14" fill="none" id="UC_SEARCH-to-UC_LOGIN" style="stroke:#181818;stroke-width:1;stroke-dasharray:7,7;"/><polygon fill="#181818" points="228.51,123.14,232.51,114.14,228.51,118.14,224.51,114.14,228.51,123.14" style="stroke:#181818;stroke-width:1;"/><text fill="#000000" font-family="sans-serif" font-size="13" lengthAdjust="spacing" textLength="69.7798" x="182.51" y="102.0669">&#171;includes&#187;</text></g><!--link UC_DOWNLOAD_SINGLE to UC_LOGIN--><g class="link" data-entity-1="UC_DOWNLOAD_SINGLE" data-entity-2="UC_LOGIN" data-source-line="17" data-uid="lnk13" id="link_UC_DOWNLOAD_SINGLE_UC_LOGIN"><path d="M228.51,204.14 C228.51,189.53 228.51,173.34 228.51,158.76" fill="none" id="UC_DOWNLOAD_SINGLE-to-UC_LOGIN" style="stroke:#181818;stroke-width:1;stroke-dasharray:7,7;"/><polygon fill="#181818" points="228.51,152.76,224.51,161.76,228.51,157.76,232.51,161.76,228.51,152.76" style="stroke:#181818;stroke-width:1;"/><text fill="#000000" font-family="sans-serif" font-size="13" lengthAdjust="spacing" textLength="69.7798" x="182.51" y="182.9769">&#171;includes&#187;</text></g><!--link UC_DOWNLOAD_BULK to UC_LOGIN--><g class="link" data-entity-1="UC_DOWNLOAD_BULK" data-entity-2="UC_LOGIN" data-source-line="18" data-uid="lnk14" id="link_UC_DOWNLOAD_BULK_UC_LOGIN"><path d="M190.45,271.11 C136.73,252.39 49.09,213.5 85.5,168.5 C109.3,139.1 147.8408,133.4939 180.9208,134.0239" fill="none" id="UC_DOWNLOAD_BULK-to-UC_LOGIN" style="stroke:#181818;stroke-width:1;stroke-dasharray:7,7;"/><polygon fill="#181818" points="186.92,134.12,177.9852,129.9763,181.9206,134.0399,177.8571,137.9753,186.92,134.12" style="stroke:#181818;stroke-width:1;"/><text fill="#000000" font-family="sans-serif" font-size="13" lengthAdjust="spacing" textLength="69.7798" x="65" y="181.5669">&#171;includes&#187;</text></g><!--SRC=[oqbDAr4eoLSeoapFA558oInAJIx9pC_ZIamkoIzIK7e-PSMpZkrA2ed52gN5gKLSN23vnBpqd5G5fHTRMvvDc_cqe-t9hjLFTsv-shz1IQ6QIm6aC3cn6AZW-SpTJ_TEVRvvz_FTyy56X3h7-_YxU_eXAtesOSxpBOkUJMj_idiRJ56mgsEGimUogYSxkb_itVkqT-gJ7QjGrRhuX_lv-3kwn0Tx-hdxkA8OtRdpPNi_H2iEJKwXFjvSjLnS8CyfwEeYN8Wa07KDaWYwdTYam2PpmRKhwDd13LUmKh2noSnBpYbDIIssi-F2D95OrI1ByAW50000]--></g></svg>