<svg xmlns="http://www.w3.org/2000/svg" xmlns:xlink="http://www.w3.org/1999/xlink" contentStyleType="text/css" data-diagram-type="CLASS" height="1014px" preserveAspectRatio="none" style="width:1231px;height:1014px;background:#FFFFFF;" version="1.1" viewBox="0 0 1231 1014" width="1231px" zoomAndPan="magnify"><defs/><g><!--cluster com--><g class="cluster" data-entity="com" data-source-line="36" data-uid="ent0014" id="cluster_com"><path d="M87.1,134.3 L120.6049,134.3 A3.75,3.75 0 0 1 123.1049,136.8 L130.1049,156.5969 L326.1,156.5969 A2.5,2.5 0 0 1 328.6,159.0969 L328.6,431.8 A2.5,2.5 0 0 1 326.1,434.3 L87.1,434.3 A2.5,2.5 0 0 1 84.6,431.8 L84.6,136.8 A2.5,2.5 0 0 1 87.1,134.3" fill="none" style="stroke:#000000;stroke-width:1.5;"/><line style="stroke:#000000;stroke-width:1.5;" x1="84.6" x2="130.1049" y1="156.5969" y2="156.5969"/><text fill="#000000" font-family="sans-serif" font-size="14" font-weight="bold" lengthAdjust="spacing" textLength="32.5049" x="88.6" y="149.2951">com</text></g><!--cluster sun--><g class="cluster" data-entity="sun" data-source-line="36" data-uid="ent0015" id="cluster_sun"><path d="M111.1,177.3 L140.3666,177.3 A3.75,3.75 0 0 1 142.8666,179.8 L149.8666,199.5969 L302.1,199.5969 A2.5,2.5 0 0 1 304.6,202.0969 L304.6,407.8 A2.5,2.5 0 0 1 302.1,410.3 L111.1,410.3 A2.5,2.5 0 0 1 108.6,407.8 L108.6,179.8 A2.5,2.5 0 0 1 111.1,177.3" fill="none" style="stroke:#000000;stroke-width:1.5;"/><line style="stroke:#000000;stroke-width:1.5;" x1="108.6" x2="149.8666" y1="199.5969" y2="199.5969"/><text fill="#000000" font-family="sans-serif" font-size="14" font-weight="bold" lengthAdjust="spacing" textLength="28.2666" x="112.6" y="192.2951">sun</text></g><!--cluster net--><g class="cluster" data-entity="net" data-source-line="36" data-uid="ent0016" id="cluster_net"><path d="M135.1,220.3 L162.2543,220.3 A3.75,3.75 0 0 1 164.7543,222.8 L171.7543,242.5969 L278.1,242.5969 A2.5,2.5 0 0 1 280.6,245.0969 L280.6,383.8 A2.5,2.5 0 0 1 278.1,386.3 L135.1,386.3 A2.5,2.5 0 0 1 132.6,383.8 L132.6,222.8 A2.5,2.5 0 0 1 135.1,220.3" fill="none" style="stroke:#000000;stroke-width:1.5;"/><line style="stroke:#000000;stroke-width:1.5;" x1="132.6" x2="171.7543" y1="242.5969" y2="242.5969"/><text fill="#000000" font-family="sans-serif" font-size="14" font-weight="bold" lengthAdjust="spacing" textLength="26.1543" x="136.6" y="235.2951">net</text></g><!--cluster httpserver--><g class="cluster" data-entity="httpserver" data-source-line="36" data-uid="ent0017" id="cluster_httpserver"><path d="M159.1,263.3 L243.7309,263.3 A3.75,3.75 0 0 1 246.2309,265.8 L253.2309,285.5969 L254.1,285.5969 A2.5,2.5 0 0 1 256.6,288.0969 L256.6,359.8 A2.5,2.5 0 0 1 254.1,362.3 L159.1,362.3 A2.5,2.5 0 0 1 156.6,359.8 L156.6,265.8 A2.5,2.5 0 0 1 159.1,263.3" fill="none" style="stroke:#000000;stroke-width:1.5;"/><line style="stroke:#000000;stroke-width:1.5;" x1="156.6" x2="253.2309" y1="285.5969" y2="285.5969"/><text fill="#000000" font-family="sans-serif" font-size="14" font-weight="bold" lengthAdjust="spacing" textLength="83.6309" x="160.6" y="278.2951">httpserver</text></g><!--class Filter--><g class="entity" data-entity="Filter" data-source-line="36" data-uid="ent0013" id="entity_Filter"><rect fill="#F1F1F1" height="48" rx="2.5" ry="2.5" style="stroke:#181818;stroke-width:0.5;" width="67.6904" x="172.75" y="298.3"/><ellipse cx="187.75" cy="314.3" fill="#ADD1B2" rx="11" ry="11" style="stroke:#181818;stroke-width:1;"/><path d="M190.7188,319.9406 Q190.1406,320.2375 189.5,320.3781 Q188.8594,320.5344 188.1563,320.5344 Q185.6563,320.5344 184.3281,318.8937 Q183.0156,317.2375 183.0156,314.1125 Q183.0156,310.9875 184.3281,309.3312 Q185.6563,307.675 188.1563,307.675 Q188.8594,307.675 189.5,307.8312 Q190.1563,307.9875 190.7188,308.2844 L190.7188,311.0031 Q190.0938,310.425 189.5,310.1594 Q188.9063,309.8781 188.2813,309.8781 Q186.9375,309.8781 186.25,310.9562 Q185.5625,312.0187 185.5625,314.1125 Q185.5625,316.2062 186.25,317.2844 Q186.9375,318.3469 188.2813,318.3469 Q188.9063,318.3469 189.5,318.0812 Q190.0938,317.8 190.7188,317.2219 L190.7188,319.9406 Z " fill="#000000"/><text fill="#000000" font-family="sans-serif" font-size="14" lengthAdjust="spacing" textLength="35.6904" x="201.75" y="319.1467">Filter</text><line style="stroke:#181818;stroke-width:0.5;" x1="173.75" x2="239.4404" y1="330.3" y2="330.3"/><line style="stroke:#181818;stroke-width:0.5;" x1="173.75" x2="239.4404" y1="338.3" y2="338.3"/></g><!--class HttpHandler--><g class="entity" data-entity="HttpHandler" data-source-line="1" data-uid="ent0002" id="entity_HttpHandler"><rect fill="#F1F1F1" height="48" rx="2.5" ry="2.5" style="stroke:#181818;stroke-width:0.5;" width="117.5176" x="463.84" y="529.89"/><ellipse cx="478.84" cy="545.89" fill="#B4A7E5" rx="11" ry="11" style="stroke:#181818;stroke-width:1;"/><path d="M474.7619,541.6556 L474.7619,539.4994 L482.1525,539.4994 L482.1525,541.6556 L479.6838,541.6556 L479.6838,549.7338 L482.1525,549.7338 L482.1525,551.89 L474.7619,551.89 L474.7619,549.7338 L477.2306,549.7338 L477.2306,541.6556 L474.7619,541.6556 Z " fill="#000000"/><text fill="#000000" font-family="sans-serif" font-size="14" font-style="italic" lengthAdjust="spacing" textLength="85.5176" x="492.84" y="550.7367">HttpHandler</text><line style="stroke:#181818;stroke-width:0.5;" x1="464.84" x2="580.3576" y1="561.89" y2="561.89"/><line style="stroke:#181818;stroke-width:0.5;" x1="464.84" x2="580.3576" y1="569.89" y2="569.89"/></g><!--class App--><g class="entity" data-entity="App" data-source-line="3" data-uid="ent0003" id="entity_App"><rect fill="#F1F1F1" height="64.2969" rx="2.5" ry="2.5" style="stroke:#181818;stroke-width:0.5;" width="159.5742" x="380.81" y="7"/><ellipse cx="442.6718" cy="23" fill="#ADD1B2" rx="11" ry="11" style="stroke:#181818;stroke-width:1;"/><path d="M445.6406,28.6406 Q445.0624,28.9375 444.4218,29.0781 Q443.7812,29.2344 443.0781,29.2344 Q440.5781,29.2344 439.2499,27.5938 Q437.9374,25.9375 437.9374,22.8125 Q437.9374,19.6875 439.2499,18.0313 Q440.5781,16.375 443.0781,16.375 Q443.7812,16.375 444.4218,16.5313 Q445.0781,16.6875 445.6406,16.9844 L445.6406,19.7031 Q445.0156,19.125 444.4218,18.8594 Q443.8281,18.5781 443.2031,18.5781 Q441.8593,18.5781 441.1718,19.6563 Q440.4843,20.7188 440.4843,22.8125 Q440.4843,24.9063 441.1718,25.9844 Q441.8593,27.0469 443.2031,27.0469 Q443.8281,27.0469 444.4218,26.7813 Q445.0156,26.5 445.6406,25.9219 L445.6406,28.6406 Z " fill="#000000"/><text fill="#000000" font-family="sans-serif" font-size="14" lengthAdjust="spacing" textLength="27.3506" x="463.1718" y="27.8467">App</text><line style="stroke:#181818;stroke-width:0.5;" x1="381.81" x2="539.3842" y1="39" y2="39"/><line style="stroke:#181818;stroke-width:0.5;" x1="381.81" x2="539.3842" y1="47" y2="47"/><g data-visibility-modifier="PUBLIC_METHOD"><ellipse cx="391.81" cy="60.6484" fill="#84BE84" rx="3" ry="3" style="stroke:#038048;stroke-width:1;"/></g><text fill="#000000" font-family="sans-serif" font-size="14" lengthAdjust="spacing" textLength="133.5742" x="400.81" y="63.9951">main(String[] args)</text></g><!--class StaticFileHandler--><g class="entity" data-entity="StaticFileHandler" data-source-line="7" data-uid="ent0004" id="entity_StaticFileHandler"><rect fill="#F1F1F1" height="80.5938" rx="2.5" ry="2.5" style="stroke:#181818;stroke-width:0.5;" width="183.6846" x="715.75" y="720.08"/><ellipse cx="745.1874" cy="736.08" fill="#ADD1B2" rx="11" ry="11" style="stroke:#181818;stroke-width:1;"/><path d="M748.1561,741.7206 Q747.578,742.0175 746.9374,742.1581 Q746.2967,742.3144 745.5936,742.3144 Q743.0936,742.3144 741.7655,740.6738 Q740.453,739.0175 740.453,735.8925 Q740.453,732.7675 741.7655,731.1113 Q743.0936,729.455 745.5936,729.455 Q746.2967,729.455 746.9374,729.6113 Q747.5936,729.7675 748.1561,730.0644 L748.1561,732.7831 Q747.5311,732.205 746.9374,731.9394 Q746.3436,731.6581 745.7186,731.6581 Q744.3749,731.6581 743.6874,732.7363 Q742.9999,733.7988 742.9999,735.8925 Q742.9999,737.9863 743.6874,739.0644 Q744.3749,740.1269 745.7186,740.1269 Q746.3436,740.1269 746.9374,739.8613 Q747.5311,739.58 748.1561,739.0019 L748.1561,741.7206 Z " fill="#000000"/><text fill="#000000" font-family="sans-serif" font-size="14" lengthAdjust="spacing" textLength="119.6016" x="762.3957" y="740.9267">StaticFileHandler</text><line style="stroke:#181818;stroke-width:0.5;" x1="716.75" x2="898.4346" y1="752.08" y2="752.08"/><g data-visibility-modifier="PRIVATE_FIELD"><rect fill="none" height="6" style="stroke:#C82930;stroke-width:1;" width="6" x="723.75" y="762.7284"/></g><text fill="#000000" font-family="sans-serif" font-size="14" lengthAdjust="spacing" textLength="109.8125" x="735.75" y="769.0751">staticDir: String</text><line style="stroke:#181818;stroke-width:0.5;" x1="716.75" x2="898.4346" y1="776.3769" y2="776.3769"/><g data-visibility-modifier="PUBLIC_METHOD"><ellipse cx="726.75" cy="790.0253" fill="#84BE84" rx="3" ry="3" style="stroke:#038048;stroke-width:1;"/></g><text fill="#000000" font-family="sans-serif" font-size="14" lengthAdjust="spacing" textLength="157.6846" x="735.75" y="793.372">handle(HttpExchange)</text></g><!--class LoginHandler--><g class="entity" data-entity="LoginHandler" data-source-line="12" data-uid="ent0006" id="entity_LoginHandler"><rect fill="#F1F1F1" height="145.7813" rx="2.5" ry="2.5" style="stroke:#181818;stroke-width:0.5;" width="247.0674" x="83.06" y="687.49"/><ellipse cx="155.7739" cy="703.49" fill="#ADD1B2" rx="11" ry="11" style="stroke:#181818;stroke-width:1;"/><path d="M158.7426,709.1306 Q158.1645,709.4275 157.5239,709.5681 Q156.8832,709.7244 156.1801,709.7244 Q153.6801,709.7244 152.352,708.0837 Q151.0395,706.4275 151.0395,703.3025 Q151.0395,700.1775 152.352,698.5212 Q153.6801,696.865 156.1801,696.865 Q156.8832,696.865 157.5239,697.0212 Q158.1801,697.1775 158.7426,697.4744 L158.7426,700.1931 Q158.1176,699.615 157.5239,699.3494 Q156.9301,699.0681 156.3051,699.0681 Q154.9614,699.0681 154.2739,700.1462 Q153.5864,701.2087 153.5864,703.3025 Q153.5864,705.3962 154.2739,706.4744 Q154.9614,707.5369 156.3051,707.5369 Q156.9301,707.5369 157.5239,707.2712 Q158.1176,706.99 158.7426,706.4119 L158.7426,709.1306 Z " fill="#000000"/><text fill="#000000" font-family="sans-serif" font-size="14" lengthAdjust="spacing" textLength="93.1396" x="176.2739" y="708.3367">LoginHandler</text><line style="stroke:#181818;stroke-width:0.5;" x1="84.06" x2="329.1274" y1="719.49" y2="719.49"/><g data-visibility-modifier="PRIVATE_FIELD"><rect fill="none" height="6" style="stroke:#C82930;stroke-width:1;" width="6" x="91.06" y="730.1384"/></g><text fill="#000000" font-family="sans-serif" font-size="14" lengthAdjust="spacing" textLength="109.8125" x="103.06" y="736.4851">staticDir: String</text><g data-visibility-modifier="PUBLIC_FIELD"><ellipse cx="94.06" cy="749.4353" fill="none" rx="3" ry="3" style="stroke:#038048;stroke-width:1;"/></g><text fill="#000000" font-family="sans-serif" font-size="14" lengthAdjust="spacing" textLength="139.1045" x="103.06" y="752.782">JWT_SECRET: String</text><g data-visibility-modifier="PUBLIC_FIELD"><ellipse cx="94.06" cy="765.7322" fill="none" rx="3" ry="3" style="stroke:#038048;stroke-width:1;"/></g><text fill="#000000" font-family="sans-serif" font-size="14" lengthAdjust="spacing" textLength="195.5146" x="103.06" y="769.0789">JWT_ALGORITHM: Algorithm</text><line style="stroke:#181818;stroke-width:0.5;" x1="84.06" x2="329.1274" y1="776.3806" y2="776.3806"/><g data-visibility-modifier="PUBLIC_METHOD"><ellipse cx="94.06" cy="790.0291" fill="#84BE84" rx="3" ry="3" style="stroke:#038048;stroke-width:1;"/></g><text fill="#000000" font-family="sans-serif" font-size="14" lengthAdjust="spacing" textLength="157.6846" x="103.06" y="793.3757">handle(HttpExchange)</text><g data-visibility-modifier="PRIVATE_METHOD"><rect fill="#F24D5C" height="6" style="stroke:#C82930;stroke-width:1;" width="6" x="91.06" y="803.3259"/></g><text fill="#000000" font-family="sans-serif" font-size="14" lengthAdjust="spacing" textLength="221.0674" x="103.06" y="809.6726">serveLoginPage(HttpExchange)</text><g data-visibility-modifier="PRIVATE_METHOD"><rect fill="#F24D5C" height="6" style="stroke:#C82930;stroke-width:1;" width="6" x="91.06" y="819.6228"/></g><text fill="#000000" font-family="sans-serif" font-size="14" lengthAdjust="spacing" textLength="195.6992" x="103.06" y="825.9695">handleLogin(HttpExchange)</text></g><!--class SearchAPIHandler--><g class="entity" data-entity="SearchAPIHandler" data-source-line="21" data-uid="ent0008" id="entity_SearchAPIHandler"><rect fill="#F1F1F1" height="96.8906" rx="2.5" ry="2.5" style="stroke:#181818;stroke-width:0.5;" width="315.3379" x="364.93" y="711.93"/><ellipse cx="455.5096" cy="727.93" fill="#ADD1B2" rx="11" ry="11" style="stroke:#181818;stroke-width:1;"/><path d="M458.4783,733.5706 Q457.9002,733.8675 457.2596,734.0081 Q456.619,734.1644 455.9158,734.1644 Q453.4158,734.1644 452.0877,732.5238 Q450.7752,730.8675 450.7752,727.7425 Q450.7752,724.6175 452.0877,722.9613 Q453.4158,721.305 455.9158,721.305 Q456.619,721.305 457.2596,721.4613 Q457.9158,721.6175 458.4783,721.9144 L458.4783,724.6331 Q457.8533,724.055 457.2596,723.7894 Q456.6658,723.5081 456.0408,723.5081 Q454.6971,723.5081 454.0096,724.5863 Q453.3221,725.6488 453.3221,727.7425 Q453.3221,729.8363 454.0096,730.9144 Q454.6971,731.9769 456.0408,731.9769 Q456.6658,731.9769 457.2596,731.7113 Q457.8533,731.43 458.4783,730.8519 L458.4783,733.5706 Z " fill="#000000"/><text fill="#000000" font-family="sans-serif" font-size="14" lengthAdjust="spacing" textLength="125.6787" x="476.0096" y="732.7767">SearchAPIHandler</text><line style="stroke:#181818;stroke-width:0.5;" x1="365.93" x2="679.2679" y1="743.93" y2="743.93"/><line style="stroke:#181818;stroke-width:0.5;" x1="365.93" x2="679.2679" y1="751.93" y2="751.93"/><g data-visibility-modifier="PUBLIC_METHOD"><ellipse cx="375.93" cy="765.5784" fill="#84BE84" rx="3" ry="3" style="stroke:#038048;stroke-width:1;"/></g><text fill="#000000" font-family="sans-serif" font-size="14" lengthAdjust="spacing" textLength="157.6846" x="384.93" y="768.9251">handle(HttpExchange)</text><g data-visibility-modifier="PRIVATE_METHOD"><rect fill="#F24D5C" height="6" style="stroke:#C82930;stroke-width:1;" width="6" x="372.93" y="778.8753"/></g><text fill="#000000" font-family="sans-serif" font-size="14" lengthAdjust="spacing" textLength="289.3379" x="384.93" y="785.222">sendResponse(HttpExchange, int, String)</text><g data-visibility-modifier="PUBLIC_METHOD"><ellipse cx="375.93" cy="798.1722" fill="#84BE84" rx="3" ry="3" style="stroke:#038048;stroke-width:1;"/></g><text fill="#000000" font-family="sans-serif" font-size="14" lengthAdjust="spacing" textLength="138.7832" x="384.93" y="801.5189">asJSON(List&lt;Map&gt;)</text></g><!--class DownloadHandler--><g class="entity" data-entity="DownloadHandler" data-source-line="27" data-uid="ent0010" id="entity_DownloadHandler"><rect fill="#F1F1F1" height="129.4844" rx="2.5" ry="2.5" style="stroke:#181818;stroke-width:0.5;" width="290.4551" x="934.37" y="695.64"/><ellipse cx="1012.9901" cy="711.64" fill="#ADD1B2" rx="11" ry="11" style="stroke:#181818;stroke-width:1;"/><path d="M1015.9589,717.2806 Q1015.3807,717.5775 1014.7401,717.7181 Q1014.0995,717.8744 1013.3964,717.8744 Q1010.8964,717.8744 1009.5682,716.2338 Q1008.2557,714.5775 1008.2557,711.4525 Q1008.2557,708.3275 1009.5682,706.6713 Q1010.8964,705.015 1013.3964,705.015 Q1014.0995,705.015 1014.7401,705.1713 Q1015.3964,705.3275 1015.9589,705.6244 L1015.9589,708.3431 Q1015.3339,707.765 1014.7401,707.4994 Q1014.1464,707.2181 1013.5214,707.2181 Q1012.1776,707.2181 1011.4901,708.2963 Q1010.8026,709.3588 1010.8026,711.4525 Q1010.8026,713.5463 1011.4901,714.6244 Q1012.1776,715.6869 1013.5214,715.6869 Q1014.1464,715.6869 1014.7401,715.4213 Q1015.3339,715.14 1015.9589,714.5619 L1015.9589,717.2806 Z " fill="#000000"/><text fill="#000000" font-family="sans-serif" font-size="14" lengthAdjust="spacing" textLength="124.7148" x="1033.4901" y="716.4867">DownloadHandler</text><line style="stroke:#181818;stroke-width:0.5;" x1="935.37" x2="1223.8251" y1="727.64" y2="727.64"/><g data-visibility-modifier="PRIVATE_FIELD"><rect fill="none" height="6" style="stroke:#C82930;stroke-width:1;" width="6" x="942.37" y="738.2884"/></g><text fill="#000000" font-family="sans-serif" font-size="14" lengthAdjust="spacing" textLength="125.043" x="954.37" y="744.6351">fileRootDir: String</text><g data-visibility-modifier="PRIVATE_FIELD"><rect fill="none" height="6" style="stroke:#C82930;stroke-width:1;" width="6" x="942.37" y="754.5853"/></g><text fill="#000000" font-family="sans-serif" font-size="14" lengthAdjust="spacing" textLength="255.917" x="954.37" y="760.932">downloadLinks: ConcurrentHashMap</text><line style="stroke:#181818;stroke-width:0.5;" x1="935.37" x2="1223.8251" y1="768.2338" y2="768.2338"/><g data-visibility-modifier="PUBLIC_METHOD"><ellipse cx="945.37" cy="781.8822" fill="#84BE84" rx="3" ry="3" style="stroke:#038048;stroke-width:1;"/></g><text fill="#000000" font-family="sans-serif" font-size="14" lengthAdjust="spacing" textLength="157.6846" x="954.37" y="785.2289">handle(HttpExchange)</text><g data-visibility-modifier="PRIVATE_METHOD"><rect fill="#F24D5C" height="6" style="stroke:#C82930;stroke-width:1;" width="6" x="942.37" y="795.1791"/></g><text fill="#000000" font-family="sans-serif" font-size="14" lengthAdjust="spacing" textLength="264.4551" x="954.37" y="801.5257">handleLinkGeneration(HttpExchange)</text><g data-visibility-modifier="PRIVATE_METHOD"><rect fill="#F24D5C" height="6" style="stroke:#C82930;stroke-width:1;" width="6" x="942.37" y="811.4759"/></g><text fill="#000000" font-family="sans-serif" font-size="14" lengthAdjust="spacing" textLength="251.7197" x="954.37" y="817.8226">handleFileDownload(HttpExchange)</text></g><!--class AuthFilter--><g class="entity" data-entity="AuthFilter" data-source-line="35" data-uid="ent0012" id="entity_AuthFilter"><rect fill="#F1F1F1" height="113.1875" rx="2.5" ry="2.5" style="stroke:#181818;stroke-width:0.5;" width="257.1572" x="78.02" y="497.3"/><ellipse cx="168.0971" cy="513.3" fill="#ADD1B2" rx="11" ry="11" style="stroke:#181818;stroke-width:1;"/><path d="M171.0659,518.9406 Q170.4878,519.2375 169.8471,519.3781 Q169.2065,519.5344 168.5034,519.5344 Q166.0034,519.5344 164.6753,517.8938 Q163.3628,516.2375 163.3628,513.1125 Q163.3628,509.9875 164.6753,508.3312 Q166.0034,506.675 168.5034,506.675 Q169.2065,506.675 169.8471,506.8312 Q170.5034,506.9875 171.0659,507.2844 L171.0659,510.0031 Q170.4409,509.425 169.8471,509.1594 Q169.2534,508.8781 168.6284,508.8781 Q167.2846,508.8781 166.5971,509.9562 Q165.9096,511.0187 165.9096,513.1125 Q165.9096,515.2063 166.5971,516.2844 Q167.2846,517.3469 168.6284,517.3469 Q169.2534,517.3469 169.8471,517.0813 Q170.4409,516.8 171.0659,516.2219 L171.0659,518.9406 Z " fill="#000000"/><text fill="#000000" font-family="sans-serif" font-size="14" lengthAdjust="spacing" textLength="68.5029" x="188.5971" y="518.1467">AuthFilter</text><line style="stroke:#181818;stroke-width:0.5;" x1="79.02" x2="334.1772" y1="529.3" y2="529.3"/><g data-visibility-modifier="PRIVATE_FIELD"><rect fill="none" height="6" style="stroke:#C82930;stroke-width:1;" width="6" x="86.02" y="539.9484"/></g><text fill="#000000" font-family="sans-serif" font-size="14" lengthAdjust="spacing" textLength="136.4453" x="98.02" y="546.2951">verifier: JWTVerifier</text><line style="stroke:#181818;stroke-width:0.5;" x1="79.02" x2="334.1772" y1="553.5969" y2="553.5969"/><g data-visibility-modifier="PUBLIC_METHOD"><ellipse cx="89.02" cy="567.2453" fill="#84BE84" rx="3" ry="3" style="stroke:#038048;stroke-width:1;"/></g><text fill="#000000" font-family="sans-serif" font-size="14" lengthAdjust="spacing" textLength="212.0029" x="98.02" y="570.592">doFilter(HttpExchange, Chain)</text><g data-visibility-modifier="PRIVATE_METHOD"><rect fill="#F24D5C" height="6" style="stroke:#C82930;stroke-width:1;" width="6" x="86.02" y="580.5422"/></g><text fill="#000000" font-family="sans-serif" font-size="14" lengthAdjust="spacing" textLength="231.1572" x="98.02" y="586.8889">getCookie(HttpExchange, String)</text><g data-visibility-modifier="PRIVATE_METHOD"><rect fill="#F24D5C" height="6" style="stroke:#C82930;stroke-width:1;" width="6" x="86.02" y="596.8391"/></g><text fill="#000000" font-family="sans-serif" font-size="14" lengthAdjust="spacing" textLength="224.0752" x="98.02" y="603.1857">isValidToken(Optional&lt;String&gt;)</text></g><!--class QueryHandler--><g class="entity" data-entity="QueryHandler" data-source-line="42" data-uid="ent0019" id="entity_QueryHandler"><rect fill="#F1F1F1" height="96.8906" rx="2.5" ry="2.5" style="stroke:#181818;stroke-width:0.5;" width="242.4531" x="401.37" y="910.27"/><ellipse cx="469.5106" cy="926.27" fill="#ADD1B2" rx="11" ry="11" style="stroke:#181818;stroke-width:1;"/><path d="M472.4794,931.9106 Q471.9012,932.2075 471.2606,932.3481 Q470.62,932.5044 469.9169,932.5044 Q467.4169,932.5044 466.0887,930.8638 Q464.7762,929.2075 464.7762,926.0825 Q464.7762,922.9575 466.0887,921.3013 Q467.4169,919.645 469.9169,919.645 Q470.62,919.645 471.2606,919.8013 Q471.9169,919.9575 472.4794,920.2544 L472.4794,922.9731 Q471.8544,922.395 471.2606,922.1294 Q470.6669,921.8481 470.0419,921.8481 Q468.6981,921.8481 468.0106,922.9263 Q467.3231,923.9888 467.3231,926.0825 Q467.3231,928.1763 468.0106,929.2544 Q468.6981,930.3169 470.0419,930.3169 Q470.6669,930.3169 471.2606,930.0513 Q471.8544,929.77 472.4794,929.1919 L472.4794,931.9106 Z " fill="#000000"/><text fill="#000000" font-family="sans-serif" font-size="14" lengthAdjust="spacing" textLength="97.6719" x="490.0106" y="931.1167">QueryHandler</text><line style="stroke:#181818;stroke-width:0.5;" x1="402.37" x2="642.8231" y1="942.27" y2="942.27"/><line style="stroke:#181818;stroke-width:0.5;" x1="402.37" x2="642.8231" y1="950.27" y2="950.27"/><g data-visibility-modifier="PUBLIC_METHOD"><ellipse cx="412.37" cy="963.9184" fill="#84BE84" rx="3" ry="3" style="stroke:#038048;stroke-width:1;"/></g><text fill="#000000" font-family="sans-serif" font-size="14" lengthAdjust="spacing" text-decoration="underline" textLength="180.6807" x="421.37" y="967.2651">query2SQL(String): String</text><g data-visibility-modifier="PRIVATE_METHOD"><rect fill="#F24D5C" height="6" style="stroke:#C82930;stroke-width:1;" width="6" x="409.37" y="977.2153"/></g><text fill="#000000" font-family="sans-serif" font-size="14" lengthAdjust="spacing" text-decoration="underline" textLength="216.4531" x="421.37" y="983.562">parseStatement(String): String</text><g data-visibility-modifier="PRIVATE_METHOD"><rect fill="#F24D5C" height="6" style="stroke:#C82930;stroke-width:1;" width="6" x="409.37" y="993.5122"/></g><text fill="#000000" font-family="sans-serif" font-size="14" lengthAdjust="spacing" text-decoration="underline" textLength="176.2441" x="421.37" y="999.8589">parseDate(String): String</text></g><!--class DBHandler--><g class="entity" data-entity="DBHandler" data-source-line="48" data-uid="ent0020" id="entity_DBHandler"><rect fill="#F1F1F1" height="80.5938" rx="2.5" ry="2.5" style="stroke:#181818;stroke-width:0.5;" width="247.1084" x="817.04" y="918.42"/><ellipse cx="898.5893" cy="934.42" fill="#ADD1B2" rx="11" ry="11" style="stroke:#181818;stroke-width:1;"/><path d="M901.5581,940.0606 Q900.9799,940.3575 900.3393,940.4981 Q899.6987,940.6544 898.9956,940.6544 Q896.4956,940.6544 895.1674,939.0138 Q893.8549,937.3575 893.8549,934.2325 Q893.8549,931.1075 895.1674,929.4513 Q896.4956,927.795 898.9956,927.795 Q899.6987,927.795 900.3393,927.9513 Q900.9956,928.1075 901.5581,928.4044 L901.5581,931.1231 Q900.9331,930.545 900.3393,930.2794 Q899.7456,929.9981 899.1206,929.9981 Q897.7768,929.9981 897.0893,931.0763 Q896.4018,932.1388 896.4018,934.2325 Q896.4018,936.3263 897.0893,937.4044 Q897.7768,938.4669 899.1206,938.4669 Q899.7456,938.4669 900.3393,938.2013 Q900.9331,937.92 901.5581,937.3419 L901.5581,940.0606 Z " fill="#000000"/><text fill="#000000" font-family="sans-serif" font-size="14" lengthAdjust="spacing" textLength="75.5098" x="919.0893" y="939.2667">DBHandler</text><line style="stroke:#181818;stroke-width:0.5;" x1="818.04" x2="1063.1484" y1="950.42" y2="950.42"/><line style="stroke:#181818;stroke-width:0.5;" x1="818.04" x2="1063.1484" y1="958.42" y2="958.42"/><g data-visibility-modifier="PUBLIC_METHOD"><ellipse cx="828.04" cy="972.0684" fill="#84BE84" rx="3" ry="3" style="stroke:#038048;stroke-width:1;"/></g><text fill="#000000" font-family="sans-serif" font-size="14" lengthAdjust="spacing" text-decoration="underline" textLength="167.0566" x="837.04" y="975.4151">SQL(String): List&lt;Map&gt;</text><g data-visibility-modifier="PUBLIC_METHOD"><ellipse cx="828.04" cy="988.3653" fill="#84BE84" rx="3" ry="3" style="stroke:#038048;stroke-width:1;"/></g><text fill="#000000" font-family="sans-serif" font-size="14" lengthAdjust="spacing" text-decoration="underline" textLength="221.1084" x="837.04" y="991.712">getNameByHash(String): String</text></g><!--class Log--><g class="entity" data-entity="Log" data-source-line="53" data-uid="ent0021" id="entity_Log"><rect fill="#F1F1F1" height="64.2969" rx="2.5" ry="2.5" style="stroke:#181818;stroke-width:0.5;" width="124.3623" x="98.41" y="926.57"/><ellipse cx="143.7152" cy="942.57" fill="#ADD1B2" rx="11" ry="11" style="stroke:#181818;stroke-width:1;"/><path d="M146.6839,948.2106 Q146.1058,948.5075 145.4652,948.6481 Q144.8246,948.8044 144.1214,948.8044 Q141.6214,948.8044 140.2933,947.1637 Q138.9808,945.5075 138.9808,942.3825 Q138.9808,939.2575 140.2933,937.6012 Q141.6214,935.945 144.1214,935.945 Q144.8246,935.945 145.4652,936.1012 Q146.1214,936.2575 146.6839,936.5544 L146.6839,939.2731 Q146.0589,938.695 145.4652,938.4294 Q144.8714,938.1481 144.2464,938.1481 Q142.9027,938.1481 142.2152,939.2262 Q141.5277,940.2887 141.5277,942.3825 Q141.5277,944.4762 142.2152,945.5544 Q142.9027,946.6169 144.2464,946.6169 Q144.8714,946.6169 145.4652,946.3512 Q146.0589,946.07 146.6839,945.4919 L146.6839,948.2106 Z " fill="#000000"/><text fill="#000000" font-family="sans-serif" font-size="14" lengthAdjust="spacing" textLength="25.252" x="164.2152" y="947.4167">Log</text><line style="stroke:#181818;stroke-width:0.5;" x1="99.41" x2="221.7723" y1="958.57" y2="958.57"/><line style="stroke:#181818;stroke-width:0.5;" x1="99.41" x2="221.7723" y1="966.57" y2="966.57"/><g data-visibility-modifier="PUBLIC_METHOD"><ellipse cx="109.41" cy="980.2184" fill="#84BE84" rx="3" ry="3" style="stroke:#038048;stroke-width:1;"/></g><text fill="#000000" font-family="sans-serif" font-size="14" lengthAdjust="spacing" text-decoration="underline" textLength="98.3623" x="118.41" y="983.5651">println(String)</text></g><!--class HttpServer--><g class="entity" data-entity="HttpServer" data-source-line="57" data-uid="ent0022" id="entity_HttpServer"><rect fill="#F1F1F1" height="48" rx="2.5" ry="2.5" style="stroke:#181818;stroke-width:0.5;" width="108.3027" x="406.44" y="298.3"/><ellipse cx="421.44" cy="314.3" fill="#ADD1B2" rx="11" ry="11" style="stroke:#181818;stroke-width:1;"/><path d="M424.4088,319.9406 Q423.8306,320.2375 423.19,320.3781 Q422.5494,320.5344 421.8463,320.5344 Q419.3463,320.5344 418.0181,318.8937 Q416.7056,317.2375 416.7056,314.1125 Q416.7056,310.9875 418.0181,309.3312 Q419.3463,307.675 421.8463,307.675 Q422.5494,307.675 423.19,307.8312 Q423.8463,307.9875 424.4088,308.2844 L424.4088,311.0031 Q423.7838,310.425 423.19,310.1594 Q422.5963,309.8781 421.9713,309.8781 Q420.6275,309.8781 419.94,310.9562 Q419.2525,312.0187 419.2525,314.1125 Q419.2525,316.2062 419.94,317.2844 Q420.6275,318.3469 421.9713,318.3469 Q422.5963,318.3469 423.19,318.0812 Q423.7838,317.8 424.4088,317.2219 L424.4088,319.9406 Z " fill="#000000"/><text fill="#000000" font-family="sans-serif" font-size="14" lengthAdjust="spacing" textLength="76.3027" x="435.44" y="319.1467">HttpServer</text><line style="stroke:#181818;stroke-width:0.5;" x1="407.44" x2="513.7427" y1="330.3" y2="330.3"/><line style="stroke:#181818;stroke-width:0.5;" x1="407.44" x2="513.7427" y1="338.3" y2="338.3"/></g><!--reverse link HttpHandler to StaticFileHandler--><g class="link" data-entity-1="HttpHandler" data-entity-2="StaticFileHandler" data-source-line="8" data-uid="lnk5" id="link_HttpHandler_StaticFileHandler"><path d="M569.9137,588.845 C618.0137,623.365 693.85,677.77 752.38,719.76" fill="none" id="HttpHandler-backto-StaticFileHandler" style="stroke:#181818;stroke-width:1;stroke-dasharray:7,7;"/><polygon fill="none" points="555.29,578.35,566.4154,593.7196,573.4121,583.9705,555.29,578.35" style="stroke:#181818;stroke-width:1;"/></g><!--reverse link HttpHandler to LoginHandler--><g class="link" data-entity-1="HttpHandler" data-entity-2="LoginHandler" data-source-line="13" data-uid="lnk7" id="link_HttpHandler_LoginHandler"><path d="M471.2379,588.1288 C430.3779,614.5688 377.09,649.05 318.14,687.2" fill="none" id="HttpHandler-backto-LoginHandler" style="stroke:#181818;stroke-width:1;stroke-dasharray:7,7;"/><polygon fill="none" points="486.35,578.35,467.9783,583.0915,474.4975,593.1662,486.35,578.35" style="stroke:#181818;stroke-width:1;"/></g><!--reverse link HttpHandler to SearchAPIHandler--><g class="link" data-entity-1="HttpHandler" data-entity-2="SearchAPIHandler" data-source-line="22" data-uid="lnk9" id="link_HttpHandler_SearchAPIHandler"><path d="M522.6,596.35 C522.6,628.66 522.6,669.61 522.6,711.45" fill="none" id="HttpHandler-backto-SearchAPIHandler" style="stroke:#181818;stroke-width:1;stroke-dasharray:7,7;"/><polygon fill="none" points="522.6,578.35,516.6,596.35,528.6,596.35,522.6,578.35" style="stroke:#181818;stroke-width:1;"/></g><!--reverse link HttpHandler to DownloadHandler--><g class="link" data-entity-1="HttpHandler" data-entity-2="DownloadHandler" data-source-line="28" data-uid="lnk11" id="link_HttpHandler_DownloadHandler"><path d="M598.7895,578.2506 C676.3595,602.3506 799.35,642.01 916.6,687.49 C922.94,689.95 929.4,692.52 935.9,695.16" fill="none" id="HttpHandler-backto-DownloadHandler" style="stroke:#181818;stroke-width:1;stroke-dasharray:7,7;"/><polygon fill="none" points="581.6,572.91,597.0093,583.9804,600.5697,572.5207,581.6,572.91" style="stroke:#181818;stroke-width:1;"/></g><!--reverse link Filter to AuthFilter--><g class="link" data-entity-1="Filter" data-entity-2="AuthFilter" data-source-line="36" data-uid="lnk18" id="link_Filter_AuthFilter"><path d="M206.6,364.58 C206.6,399.58 206.6,448.78 206.6,496.99" fill="none" id="Filter-backto-AuthFilter" style="stroke:#181818;stroke-width:1;"/><polygon fill="none" points="206.6,346.58,200.6,364.58,212.6,364.58,206.6,346.58" style="stroke:#181818;stroke-width:1;"/></g><!--link App to HttpServer--><g class="link" data-entity-1="App" data-entity-2="HttpServer" data-source-line="57" data-uid="lnk23" id="link_App_HttpServer"><path codeLine="57" d="M460.6,71.59 C460.6,128.61 460.6,241.87 460.6,292.16" fill="none" id="App-to-HttpServer" style="stroke:#181818;stroke-width:1;stroke-dasharray:7,7;"/><polygon fill="#181818" points="460.6,298.16,464.6,289.16,460.6,293.16,456.6,289.16,460.6,298.16" style="stroke:#181818;stroke-width:1;"/><text fill="#000000" font-family="sans-serif" font-size="13" lengthAdjust="spacing" textLength="48.3247" x="461.6" y="114.3669">creates</text></g><!--link HttpServer to HttpHandler--><g class="link" data-entity-1="HttpServer" data-entity-2="HttpHandler" data-source-line="58" data-uid="lnk24" id="link_HttpServer_HttpHandler"><path codeLine="58" d="M466.88,346.58 C478.76,390.58 502.8364,479.7073 514.7264,523.7573" fill="none" id="HttpServer-to-HttpHandler" style="stroke:#181818;stroke-width:1;stroke-dasharray:7,7;"/><polygon fill="#181818" points="516.29,529.55,517.8064,519.8186,514.987,524.7228,510.0829,521.9033,516.29,529.55" style="stroke:#181818;stroke-width:1;"/><text fill="#000000" font-family="sans-serif" font-size="13" lengthAdjust="spacing" textLength="29.7832" x="499.6" y="463.3669">uses</text></g><!--link HttpServer to AuthFilter--><g class="link" data-entity-1="HttpServer" data-entity-2="AuthFilter" data-source-line="59" data-uid="lnk25" id="link_HttpServer_AuthFilter"><path codeLine="59" d="M434.84,346.58 C396.12,381.58 326.2205,444.756 272.9005,492.966" fill="none" id="HttpServer-to-AuthFilter" style="stroke:#181818;stroke-width:1;stroke-dasharray:7,7;"/><polygon fill="#181818" points="268.45,496.99,277.8085,493.921,272.1588,493.6367,272.4431,487.987,268.45,496.99" style="stroke:#181818;stroke-width:1;"/><text fill="#000000" font-family="sans-serif" font-size="13" lengthAdjust="spacing" textLength="29.7832" x="318.6" y="463.3669">uses</text></g><!--link SearchAPIHandler to QueryHandler--><g class="link" data-entity-1="SearchAPIHandler" data-entity-2="QueryHandler" data-source-line="61" data-uid="lnk26" id="link_SearchAPIHandler_QueryHandler"><path codeLine="61" d="M522.6,809.16 C522.6,839.8 522.6,873.44 522.6,904.06" fill="none" id="SearchAPIHandler-to-QueryHandler" style="stroke:#181818;stroke-width:1;stroke-dasharray:7,7;"/><polygon fill="#181818" points="522.6,910.06,526.6,901.06,522.6,905.06,518.6,901.06,522.6,910.06" style="stroke:#181818;stroke-width:1;"/><text fill="#000000" font-family="sans-serif" font-size="13" lengthAdjust="spacing" textLength="29.7832" x="523.6" y="876.3369">uses</text></g><!--link SearchAPIHandler to DBHandler--><g class="link" data-entity-1="SearchAPIHandler" data-entity-2="DBHandler" data-source-line="62" data-uid="lnk27" id="link_SearchAPIHandler_DBHandler"><path codeLine="62" d="M624.58,809.28 C695.64,842.66 783.8593,884.0891 850.7293,915.4991" fill="none" id="SearchAPIHandler-to-DBHandler" style="stroke:#181818;stroke-width:1;stroke-dasharray:7,7;"/><polygon fill="#181818" points="856.16,918.05,849.7145,910.6031,851.6344,915.9242,846.3133,917.8441,856.16,918.05" style="stroke:#181818;stroke-width:1;"/><text fill="#000000" font-family="sans-serif" font-size="13" lengthAdjust="spacing" textLength="29.7832" x="769.6" y="876.3369">uses</text></g><!--link DownloadHandler to DBHandler--><g class="link" data-entity-1="DownloadHandler" data-entity-2="DBHandler" data-source-line="63" data-uid="lnk28" id="link_DownloadHandler_DBHandler"><path codeLine="63" d="M1034.27,825.39 C1012.65,855.94 990.9168,886.6429 972.1068,913.2129" fill="none" id="DownloadHandler-to-DBHandler" style="stroke:#181818;stroke-width:1;stroke-dasharray:7,7;"/><polygon fill="#181818" points="968.64,918.11,977.1049,913.0756,971.529,914.0291,970.5755,908.4532,968.64,918.11" style="stroke:#181818;stroke-width:1;"/><text fill="#000000" font-family="sans-serif" font-size="13" lengthAdjust="spacing" textLength="29.7832" x="1006.6" y="876.3369">uses</text></g><!--link AuthFilter to LoginHandler--><g class="link" data-entity-1="AuthFilter" data-entity-2="LoginHandler" data-source-line="64" data-uid="lnk29" id="link_AuthFilter_LoginHandler"><path codeLine="64" d="M206.6,610.77 C206.6,634.3 206.6,655.99 206.6,681.05" fill="none" id="AuthFilter-to-LoginHandler" style="stroke:#181818;stroke-width:1;stroke-dasharray:7,7;"/><polygon fill="#181818" points="206.6,687.05,210.6,678.05,206.6,682.05,202.6,678.05,206.6,687.05" style="stroke:#181818;stroke-width:1;"/><text fill="#000000" font-family="sans-serif" font-size="13" lengthAdjust="spacing" textLength="112.6011" x="207.6" y="653.5569">uses (JWT config)</text></g><!--link AuthFilter to Log--><g class="link" data-entity-1="AuthFilter" data-entity-2="Log" data-source-line="65" data-uid="lnk30" id="link_AuthFilter_Log"><path codeLine="65" d="M103.21,610.76 C75.85,631.04 49.74,656.7 34.6,687.49 C6,745.63 9.61,773.49 34.6,833.27 C50.6,871.57 80.0113,900.4126 108.7313,922.5926" fill="none" id="AuthFilter-to-Log" style="stroke:#181818;stroke-width:1;stroke-dasharray:7,7;"/><polygon fill="#181818" points="113.48,926.26,108.8018,917.5931,109.5227,923.2039,103.912,923.9248,113.48,926.26" style="stroke:#181818;stroke-width:1;"/><text fill="#000000" font-family="sans-serif" font-size="13" lengthAdjust="spacing" textLength="29.7832" x="35.6" y="764.9469">uses</text></g><!--link SearchAPIHandler to Log--><g class="link" data-entity-1="SearchAPIHandler" data-entity-2="Log" data-source-line="66" data-uid="lnk31" id="link_SearchAPIHandler_Log"><path codeLine="66" d="M434.5,809.16 C367.43,845.54 282.2741,891.7193 224.0141,923.3193" fill="none" id="SearchAPIHandler-to-Log" style="stroke:#181818;stroke-width:1;stroke-dasharray:7,7;"/><polygon fill="#181818" points="218.74,926.18,228.5583,925.4051,223.1351,923.7961,224.7441,918.3729,218.74,926.18" style="stroke:#181818;stroke-width:1;"/><text fill="#000000" font-family="sans-serif" font-size="13" lengthAdjust="spacing" textLength="29.7832" x="331.6" y="876.3369">uses</text></g><!--SRC=[dPJ1RgCm48RlF8MFL6aux15LbMYIDgrequQeUrYjLXPCm0hOh6rsMrLzznqRQ824jDgZxS_ZV_wPCUCQv9R6G9PQbqlAanoauyGvLOe4PKdU748c1MNSZRHaFFtnar2PgZFdlQKYJJMBhraEpNN2YZA70hXMtQWsr5HPUiwaJ-g09dvc2TV0YvSOLobq7WX5olX_nxxxllaLBMRhnMQu6uGtg_NjPddlao1FXMGwAqRLcF0W_u0LyqZJ8-VrFGkCfH81bN4MFDv-8PqJEdYo1bKAhlgdvuHnVTvaQT09LNVHwi4DcT8NzxIyx4YPYxyy5pJvYh5RBEvQ2DstTfeq8KB6TyedCy7ZIaeCiQGgm-TE9T6OXJTlW8F4mWa-HfdUQkMEEHjKEaCEkvd0YqQ758b5uQcAUnoqb-4jMp_fDPHD3DTiom2pmePuRXP6TY9gRE3lBCD9iCfIq3CXTcnOWRtvKwQUQSwIZTW1TrUboP3c5pNGhSHJ1VArw_TRtSZlPFBR77sBdi9c-iuwzdzGqv9A1MOCRVq-H-T87b3xnhWwhgMdugEZUWYQya0Bk7er3J3-0ex887Q9WCxRFyPwOpuVpxkqpHZPoX6Vn19Gkt8wcotJYlP9fGw9JdiqW7CmYuRhrQ8XZu9xbnfgE4z7eOuCSzxxsMg4kDY9sBfyoz27G_wagFtvFm00]--></g></svg>