<svg xmlns="http://www.w3.org/2000/svg" xmlns:xlink="http://www.w3.org/1999/xlink" contentStyleType="text/css" data-diagram-type="CLASS" height="1171px" preserveAspectRatio="none" style="width:1342px;height:1171px;background:#FFFFFF;" version="1.1" viewBox="0 0 1342 1171" width="1342px" zoomAndPan="magnify"><defs/><g><!--cluster com--><g class="cluster" data-qualified-name="com" data-source-line="41" id="ent0015"><path d="M990.73,134.3 L1024.2349,134.3 A3.75,3.75 0 0 1 1026.7349,136.8 L1033.7349,156.5969 L1229.73,156.5969 A2.5,2.5 0 0 1 1232.23,159.0969 L1232.23,431.8 A2.5,2.5 0 0 1 1229.73,434.3 L990.73,434.3 A2.5,2.5 0 0 1 988.23,431.8 L988.23,136.8 A2.5,2.5 0 0 1 990.73,134.3" fill="none" style="stroke:#000000;stroke-width:1.5;"/><line style="stroke:#000000;stroke-width:1.5;" x1="988.23" x2="1033.7349" y1="156.5969" y2="156.5969"/><text fill="#000000" font-family="sans-serif" font-size="14" font-weight="bold" lengthAdjust="spacing" textLength="32.5049" x="992.23" y="149.2951">com</text></g><!--cluster sun--><g class="cluster" data-qualified-name="com.sun" data-source-line="41" id="ent0016"><path d="M1014.73,177.3 L1043.9966,177.3 A3.75,3.75 0 0 1 1046.4966,179.8 L1053.4966,199.5969 L1205.73,199.5969 A2.5,2.5 0 0 1 1208.23,202.0969 L1208.23,407.8 A2.5,2.5 0 0 1 1205.73,410.3 L1014.73,410.3 A2.5,2.5 0 0 1 1012.23,407.8 L1012.23,179.8 A2.5,2.5 0 0 1 1014.73,177.3" fill="none" style="stroke:#000000;stroke-width:1.5;"/><line style="stroke:#000000;stroke-width:1.5;" x1="1012.23" x2="1053.4966" y1="199.5969" y2="199.5969"/><text fill="#000000" font-family="sans-serif" font-size="14" font-weight="bold" lengthAdjust="spacing" textLength="28.2666" x="1016.23" y="192.2951">sun</text></g><!--cluster net--><g class="cluster" data-qualified-name="com.sun.net" data-source-line="41" id="ent0017"><path d="M1038.73,220.3 L1065.8843,220.3 A3.75,3.75 0 0 1 1068.3843,222.8 L1075.3843,242.5969 L1181.73,242.5969 A2.5,2.5 0 0 1 1184.23,245.0969 L1184.23,383.8 A2.5,2.5 0 0 1 1181.73,386.3 L1038.73,386.3 A2.5,2.5 0 0 1 1036.23,383.8 L1036.23,222.8 A2.5,2.5 0 0 1 1038.73,220.3" fill="none" style="stroke:#000000;stroke-width:1.5;"/><line style="stroke:#000000;stroke-width:1.5;" x1="1036.23" x2="1075.3843" y1="242.5969" y2="242.5969"/><text fill="#000000" font-family="sans-serif" font-size="14" font-weight="bold" lengthAdjust="spacing" textLength="26.1543" x="1040.23" y="235.2951">net</text></g><!--cluster httpserver--><g class="cluster" data-qualified-name="com.sun.net.httpserver" data-source-line="41" id="ent0018"><path d="M1062.73,263.3 L1147.3609,263.3 A3.75,3.75 0 0 1 1149.8609,265.8 L1156.8609,285.5969 L1157.73,285.5969 A2.5,2.5 0 0 1 1160.23,288.0969 L1160.23,359.8 A2.5,2.5 0 0 1 1157.73,362.3 L1062.73,362.3 A2.5,2.5 0 0 1 1060.23,359.8 L1060.23,265.8 A2.5,2.5 0 0 1 1062.73,263.3" fill="none" style="stroke:#000000;stroke-width:1.5;"/><line style="stroke:#000000;stroke-width:1.5;" x1="1060.23" x2="1156.8609" y1="285.5969" y2="285.5969"/><text fill="#000000" font-family="sans-serif" font-size="14" font-weight="bold" lengthAdjust="spacing" textLength="83.6309" x="1064.23" y="278.2951">httpserver</text></g><!--class Filter--><g class="entity" data-qualified-name="com.sun.net.httpserver.Filter" data-source-line="41" id="ent0014"><rect fill="#F1F1F1" height="48" rx="2.5" ry="2.5" style="stroke:#181818;stroke-width:0.5;" width="67.6904" x="1076.38" y="298.3"/><ellipse cx="1091.38" cy="314.3" fill="#ADD1B2" rx="11" ry="11" style="stroke:#181818;stroke-width:1;"/><path d="M1094.3488,319.9406 Q1093.7706,320.2375 1093.13,320.3781 Q1092.4894,320.5344 1091.7863,320.5344 Q1089.2863,320.5344 1087.9581,318.8937 Q1086.6456,317.2375 1086.6456,314.1125 Q1086.6456,310.9875 1087.9581,309.3312 Q1089.2863,307.675 1091.7863,307.675 Q1092.4894,307.675 1093.13,307.8312 Q1093.7863,307.9875 1094.3488,308.2844 L1094.3488,311.0031 Q1093.7238,310.425 1093.13,310.1594 Q1092.5363,309.8781 1091.9113,309.8781 Q1090.5675,309.8781 1089.88,310.9562 Q1089.1925,312.0187 1089.1925,314.1125 Q1089.1925,316.2062 1089.88,317.2844 Q1090.5675,318.3469 1091.9113,318.3469 Q1092.5363,318.3469 1093.13,318.0812 Q1093.7238,317.8 1094.3488,317.2219 L1094.3488,319.9406 Z " fill="#000000"/><text fill="#000000" font-family="sans-serif" font-size="14" lengthAdjust="spacing" textLength="35.6904" x="1105.38" y="319.1467">Filter</text><line style="stroke:#181818;stroke-width:0.5;" x1="1077.38" x2="1143.0704" y1="330.3" y2="330.3"/><line style="stroke:#181818;stroke-width:0.5;" x1="1077.38" x2="1143.0704" y1="338.3" y2="338.3"/></g><!--class HttpHandler--><g class="entity" data-qualified-name="HttpHandler" data-source-line="1" id="ent0002"><rect fill="#F1F1F1" height="48" rx="2.5" ry="2.5" style="stroke:#181818;stroke-width:0.5;" width="117.5176" x="716.47" y="529.89"/><ellipse cx="731.47" cy="545.89" fill="#B4A7E5" rx="11" ry="11" style="stroke:#181818;stroke-width:1;"/><path d="M727.3919,541.6556 L727.3919,539.4994 L734.7825,539.4994 L734.7825,541.6556 L732.3138,541.6556 L732.3138,549.7338 L734.7825,549.7338 L734.7825,551.89 L727.3919,551.89 L727.3919,549.7338 L729.8606,549.7338 L729.8606,541.6556 L727.3919,541.6556 Z " fill="#000000"/><text fill="#000000" font-family="sans-serif" font-size="14" font-style="italic" lengthAdjust="spacing" textLength="85.5176" x="745.47" y="550.7367">HttpHandler</text><line style="stroke:#181818;stroke-width:0.5;" x1="717.47" x2="832.9876" y1="561.89" y2="561.89"/><line style="stroke:#181818;stroke-width:0.5;" x1="717.47" x2="832.9876" y1="569.89" y2="569.89"/></g><!--class Config--><g class="entity" data-qualified-name="Config" data-source-line="3" id="ent0003"><rect fill="#F1F1F1" height="80.5938" rx="2.5" ry="2.5" style="stroke:#181818;stroke-width:0.5;" width="184.1563" x="933.15" y="1084.16"/><ellipse cx="998.5187" cy="1100.16" fill="#ADD1B2" rx="11" ry="11" style="stroke:#181818;stroke-width:1;"/><path d="M1001.4874,1105.8006 Q1000.9093,1106.0975 1000.2687,1106.2381 Q999.628,1106.3944 998.9249,1106.3944 Q996.4249,1106.3944 995.0968,1104.7538 Q993.7843,1103.0975 993.7843,1099.9725 Q993.7843,1096.8475 995.0968,1095.1913 Q996.4249,1093.535 998.9249,1093.535 Q999.628,1093.535 1000.2687,1093.6913 Q1000.9249,1093.8475 1001.4874,1094.1444 L1001.4874,1096.8631 Q1000.8624,1096.285 1000.2687,1096.0194 Q999.6749,1095.7381 999.0499,1095.7381 Q997.7062,1095.7381 997.0187,1096.8163 Q996.3312,1097.8788 996.3312,1099.9725 Q996.3312,1102.0663 997.0187,1103.1444 Q997.7062,1104.2069 999.0499,1104.2069 Q999.6749,1104.2069 1000.2687,1103.9413 Q1000.8624,1103.66 1001.4874,1103.0819 L1001.4874,1105.8006 Z " fill="#000000"/><text fill="#000000" font-family="sans-serif" font-size="14" lengthAdjust="spacing" textLength="44.9189" x="1019.0187" y="1105.0067">Config</text><line style="stroke:#181818;stroke-width:0.5;" x1="934.15" x2="1116.3063" y1="1116.16" y2="1116.16"/><line style="stroke:#181818;stroke-width:0.5;" x1="934.15" x2="1116.3063" y1="1124.16" y2="1124.16"/><g data-visibility-modifier="PUBLIC_METHOD"><ellipse cx="944.15" cy="1137.8084" fill="#84BE84" rx="3" ry="3" style="stroke:#038048;stroke-width:1;"/></g><text fill="#000000" font-family="sans-serif" font-size="14" lengthAdjust="spacing" text-decoration="underline" textLength="82.626" x="953.15" y="1141.1551">load(String)</text><g data-visibility-modifier="PUBLIC_METHOD"><ellipse cx="944.15" cy="1154.1053" fill="#84BE84" rx="3" ry="3" style="stroke:#038048;stroke-width:1;"/></g><text fill="#000000" font-family="sans-serif" font-size="14" lengthAdjust="spacing" text-decoration="underline" textLength="158.1563" x="953.15" y="1157.452">startHotReload(String)</text></g><!--class App--><g class="entity" data-qualified-name="App" data-source-line="8" id="ent0004"><rect fill="#F1F1F1" height="64.2969" rx="2.5" ry="2.5" style="stroke:#181818;stroke-width:0.5;" width="159.5742" x="1049.44" y="7"/><ellipse cx="1111.3018" cy="23" fill="#ADD1B2" rx="11" ry="11" style="stroke:#181818;stroke-width:1;"/><path d="M1114.2706,28.6406 Q1113.6924,28.9375 1113.0518,29.0781 Q1112.4112,29.2344 1111.7081,29.2344 Q1109.2081,29.2344 1107.8799,27.5938 Q1106.5674,25.9375 1106.5674,22.8125 Q1106.5674,19.6875 1107.8799,18.0313 Q1109.2081,16.375 1111.7081,16.375 Q1112.4112,16.375 1113.0518,16.5313 Q1113.7081,16.6875 1114.2706,16.9844 L1114.2706,19.7031 Q1113.6456,19.125 1113.0518,18.8594 Q1112.4581,18.5781 1111.8331,18.5781 Q1110.4893,18.5781 1109.8018,19.6563 Q1109.1143,20.7188 1109.1143,22.8125 Q1109.1143,24.9063 1109.8018,25.9844 Q1110.4893,27.0469 1111.8331,27.0469 Q1112.4581,27.0469 1113.0518,26.7813 Q1113.6456,26.5 1114.2706,25.9219 L1114.2706,28.6406 Z " fill="#000000"/><text fill="#000000" font-family="sans-serif" font-size="14" lengthAdjust="spacing" textLength="27.3506" x="1131.8018" y="27.8467">App</text><line style="stroke:#181818;stroke-width:0.5;" x1="1050.44" x2="1208.0142" y1="39" y2="39"/><line style="stroke:#181818;stroke-width:0.5;" x1="1050.44" x2="1208.0142" y1="47" y2="47"/><g data-visibility-modifier="PUBLIC_METHOD"><ellipse cx="1060.44" cy="60.6484" fill="#84BE84" rx="3" ry="3" style="stroke:#038048;stroke-width:1;"/></g><text fill="#000000" font-family="sans-serif" font-size="14" lengthAdjust="spacing" textLength="133.5742" x="1069.44" y="63.9951">main(String[] args)</text></g><!--class StaticFileHandler--><g class="entity" data-qualified-name="StaticFileHandler" data-source-line="12" id="ent0005"><rect fill="#F1F1F1" height="80.5938" rx="2.5" ry="2.5" style="stroke:#181818;stroke-width:0.5;" width="183.6846" x="683.39" y="720.08"/><ellipse cx="712.8274" cy="736.08" fill="#ADD1B2" rx="11" ry="11" style="stroke:#181818;stroke-width:1;"/><path d="M715.7961,741.7206 Q715.218,742.0175 714.5774,742.1581 Q713.9367,742.3144 713.2336,742.3144 Q710.7336,742.3144 709.4055,740.6737 Q708.093,739.0175 708.093,735.8925 Q708.093,732.7675 709.4055,731.1112 Q710.7336,729.455 713.2336,729.455 Q713.9367,729.455 714.5774,729.6112 Q715.2336,729.7675 715.7961,730.0644 L715.7961,732.7831 Q715.1711,732.205 714.5774,731.9394 Q713.9836,731.6581 713.3586,731.6581 Q712.0149,731.6581 711.3274,732.7362 Q710.6399,733.7987 710.6399,735.8925 Q710.6399,737.9862 711.3274,739.0644 Q712.0149,740.1269 713.3586,740.1269 Q713.9836,740.1269 714.5774,739.8612 Q715.1711,739.58 715.7961,739.0019 L715.7961,741.7206 Z " fill="#000000"/><text fill="#000000" font-family="sans-serif" font-size="14" lengthAdjust="spacing" textLength="119.6016" x="730.0357" y="740.9267">StaticFileHandler</text><line style="stroke:#181818;stroke-width:0.5;" x1="684.39" x2="866.0746" y1="752.08" y2="752.08"/><g data-visibility-modifier="PRIVATE_FIELD"><rect fill="none" height="6" style="stroke:#C82930;stroke-width:1;" width="6" x="691.39" y="762.7284"/></g><text fill="#000000" font-family="sans-serif" font-size="14" lengthAdjust="spacing" textLength="109.8125" x="703.39" y="769.0751">staticDir: String</text><line style="stroke:#181818;stroke-width:0.5;" x1="684.39" x2="866.0746" y1="776.3769" y2="776.3769"/><g data-visibility-modifier="PUBLIC_METHOD"><ellipse cx="694.39" cy="790.0253" fill="#84BE84" rx="3" ry="3" style="stroke:#038048;stroke-width:1;"/></g><text fill="#000000" font-family="sans-serif" font-size="14" lengthAdjust="spacing" textLength="157.6846" x="703.39" y="793.372">handle(HttpExchange)</text></g><!--class LoginHandler--><g class="entity" data-qualified-name="LoginHandler" data-source-line="17" id="ent0007"><rect fill="#F1F1F1" height="145.7813" rx="2.5" ry="2.5" style="stroke:#181818;stroke-width:0.5;" width="247.0674" x="901.69" y="687.48"/><ellipse cx="974.4039" cy="703.48" fill="#ADD1B2" rx="11" ry="11" style="stroke:#181818;stroke-width:1;"/><path d="M977.3726,709.1206 Q976.7945,709.4175 976.1539,709.5581 Q975.5132,709.7144 974.8101,709.7144 Q972.3101,709.7144 970.982,708.0738 Q969.6695,706.4175 969.6695,703.2925 Q969.6695,700.1675 970.982,698.5113 Q972.3101,696.855 974.8101,696.855 Q975.5132,696.855 976.1539,697.0113 Q976.8101,697.1675 977.3726,697.4644 L977.3726,700.1831 Q976.7476,699.605 976.1539,699.3394 Q975.5601,699.0581 974.9351,699.0581 Q973.5914,699.0581 972.9039,700.1363 Q972.2164,701.1988 972.2164,703.2925 Q972.2164,705.3863 972.9039,706.4644 Q973.5914,707.5269 974.9351,707.5269 Q975.5601,707.5269 976.1539,707.2613 Q976.7476,706.98 977.3726,706.4019 L977.3726,709.1206 Z " fill="#000000"/><text fill="#000000" font-family="sans-serif" font-size="14" lengthAdjust="spacing" textLength="93.1396" x="994.9039" y="708.3267">LoginHandler</text><line style="stroke:#181818;stroke-width:0.5;" x1="902.69" x2="1147.7574" y1="719.48" y2="719.48"/><g data-visibility-modifier="PRIVATE_FIELD"><rect fill="none" height="6" style="stroke:#C82930;stroke-width:1;" width="6" x="909.69" y="730.1284"/></g><text fill="#000000" font-family="sans-serif" font-size="14" lengthAdjust="spacing" textLength="109.8125" x="921.69" y="736.4751">staticDir: String</text><g data-visibility-modifier="PUBLIC_FIELD"><ellipse cx="912.69" cy="749.4253" fill="none" rx="3" ry="3" style="stroke:#038048;stroke-width:1;"/></g><text fill="#000000" font-family="sans-serif" font-size="14" lengthAdjust="spacing" textLength="139.1045" x="921.69" y="752.772">JWT_SECRET: String</text><g data-visibility-modifier="PUBLIC_FIELD"><ellipse cx="912.69" cy="765.7222" fill="none" rx="3" ry="3" style="stroke:#038048;stroke-width:1;"/></g><text fill="#000000" font-family="sans-serif" font-size="14" lengthAdjust="spacing" textLength="195.5146" x="921.69" y="769.0689">JWT_ALGORITHM: Algorithm</text><line style="stroke:#181818;stroke-width:0.5;" x1="902.69" x2="1147.7574" y1="776.3706" y2="776.3706"/><g data-visibility-modifier="PUBLIC_METHOD"><ellipse cx="912.69" cy="790.0191" fill="#84BE84" rx="3" ry="3" style="stroke:#038048;stroke-width:1;"/></g><text fill="#000000" font-family="sans-serif" font-size="14" lengthAdjust="spacing" textLength="157.6846" x="921.69" y="793.3657">handle(HttpExchange)</text><g data-visibility-modifier="PRIVATE_METHOD"><rect fill="#F24D5C" height="6" style="stroke:#C82930;stroke-width:1;" width="6" x="909.69" y="803.3159"/></g><text fill="#000000" font-family="sans-serif" font-size="14" lengthAdjust="spacing" textLength="221.0674" x="921.69" y="809.6626">serveLoginPage(HttpExchange)</text><g data-visibility-modifier="PRIVATE_METHOD"><rect fill="#F24D5C" height="6" style="stroke:#C82930;stroke-width:1;" width="6" x="909.69" y="819.6128"/></g><text fill="#000000" font-family="sans-serif" font-size="14" lengthAdjust="spacing" textLength="195.6992" x="921.69" y="825.9595">handleLogin(HttpExchange)</text></g><!--class SearchAPIHandler--><g class="entity" data-qualified-name="SearchAPIHandler" data-source-line="26" id="ent0009"><rect fill="#F1F1F1" height="96.8906" rx="2.5" ry="2.5" style="stroke:#181818;stroke-width:0.5;" width="315.3379" x="332.56" y="711.93"/><ellipse cx="423.1396" cy="727.93" fill="#ADD1B2" rx="11" ry="11" style="stroke:#181818;stroke-width:1;"/><path d="M426.1083,733.5706 Q425.5302,733.8675 424.8896,734.0081 Q424.249,734.1644 423.5458,734.1644 Q421.0458,734.1644 419.7177,732.5238 Q418.4052,730.8675 418.4052,727.7425 Q418.4052,724.6175 419.7177,722.9613 Q421.0458,721.305 423.5458,721.305 Q424.249,721.305 424.8896,721.4613 Q425.5458,721.6175 426.1083,721.9144 L426.1083,724.6331 Q425.4833,724.055 424.8896,723.7894 Q424.2958,723.5081 423.6708,723.5081 Q422.3271,723.5081 421.6396,724.5863 Q420.9521,725.6488 420.9521,727.7425 Q420.9521,729.8363 421.6396,730.9144 Q422.3271,731.9769 423.6708,731.9769 Q424.2958,731.9769 424.8896,731.7113 Q425.4833,731.43 426.1083,730.8519 L426.1083,733.5706 Z " fill="#000000"/><text fill="#000000" font-family="sans-serif" font-size="14" lengthAdjust="spacing" textLength="125.6787" x="443.6396" y="732.7767">SearchAPIHandler</text><line style="stroke:#181818;stroke-width:0.5;" x1="333.56" x2="646.8979" y1="743.93" y2="743.93"/><line style="stroke:#181818;stroke-width:0.5;" x1="333.56" x2="646.8979" y1="751.93" y2="751.93"/><g data-visibility-modifier="PUBLIC_METHOD"><ellipse cx="343.56" cy="765.5784" fill="#84BE84" rx="3" ry="3" style="stroke:#038048;stroke-width:1;"/></g><text fill="#000000" font-family="sans-serif" font-size="14" lengthAdjust="spacing" textLength="157.6846" x="352.56" y="768.9251">handle(HttpExchange)</text><g data-visibility-modifier="PRIVATE_METHOD"><rect fill="#F24D5C" height="6" style="stroke:#C82930;stroke-width:1;" width="6" x="340.56" y="778.8753"/></g><text fill="#000000" font-family="sans-serif" font-size="14" lengthAdjust="spacing" textLength="289.3379" x="352.56" y="785.222">sendResponse(HttpExchange, int, String)</text><g data-visibility-modifier="PUBLIC_METHOD"><ellipse cx="343.56" cy="798.1722" fill="#84BE84" rx="3" ry="3" style="stroke:#038048;stroke-width:1;"/></g><text fill="#000000" font-family="sans-serif" font-size="14" lengthAdjust="spacing" textLength="138.7832" x="352.56" y="801.5189">asJSON(List&lt;Map&gt;)</text></g><!--class DownloadHandler--><g class="entity" data-qualified-name="DownloadHandler" data-source-line="32" id="ent0011"><rect fill="#F1F1F1" height="129.4844" rx="2.5" ry="2.5" style="stroke:#181818;stroke-width:0.5;" width="290.4551" x="7" y="695.63"/><ellipse cx="85.6201" cy="711.63" fill="#ADD1B2" rx="11" ry="11" style="stroke:#181818;stroke-width:1;"/><path d="M88.5889,717.2706 Q88.0107,717.5675 87.3701,717.7081 Q86.7295,717.8644 86.0264,717.8644 Q83.5264,717.8644 82.1982,716.2238 Q80.8857,714.5675 80.8857,711.4425 Q80.8857,708.3175 82.1982,706.6613 Q83.5264,705.005 86.0264,705.005 Q86.7295,705.005 87.3701,705.1613 Q88.0264,705.3175 88.5889,705.6144 L88.5889,708.3331 Q87.9639,707.755 87.3701,707.4894 Q86.7764,707.2081 86.1514,707.2081 Q84.8076,707.2081 84.1201,708.2863 Q83.4326,709.3488 83.4326,711.4425 Q83.4326,713.5363 84.1201,714.6144 Q84.8076,715.6769 86.1514,715.6769 Q86.7764,715.6769 87.3701,715.4113 Q87.9639,715.13 88.5889,714.5519 L88.5889,717.2706 Z " fill="#000000"/><text fill="#000000" font-family="sans-serif" font-size="14" lengthAdjust="spacing" textLength="124.7148" x="106.1201" y="716.4767">DownloadHandler</text><line style="stroke:#181818;stroke-width:0.5;" x1="8" x2="296.4551" y1="727.63" y2="727.63"/><g data-visibility-modifier="PRIVATE_FIELD"><rect fill="none" height="6" style="stroke:#C82930;stroke-width:1;" width="6" x="15" y="738.2784"/></g><text fill="#000000" font-family="sans-serif" font-size="14" lengthAdjust="spacing" textLength="125.043" x="27" y="744.6251">fileRootDir: String</text><g data-visibility-modifier="PRIVATE_FIELD"><rect fill="none" height="6" style="stroke:#C82930;stroke-width:1;" width="6" x="15" y="754.5753"/></g><text fill="#000000" font-family="sans-serif" font-size="14" lengthAdjust="spacing" textLength="255.917" x="27" y="760.922">downloadLinks: ConcurrentHashMap</text><line style="stroke:#181818;stroke-width:0.5;" x1="8" x2="296.4551" y1="768.2238" y2="768.2238"/><g data-visibility-modifier="PUBLIC_METHOD"><ellipse cx="18" cy="781.8722" fill="#84BE84" rx="3" ry="3" style="stroke:#038048;stroke-width:1;"/></g><text fill="#000000" font-family="sans-serif" font-size="14" lengthAdjust="spacing" textLength="157.6846" x="27" y="785.2189">handle(HttpExchange)</text><g data-visibility-modifier="PRIVATE_METHOD"><rect fill="#F24D5C" height="6" style="stroke:#C82930;stroke-width:1;" width="6" x="15" y="795.1691"/></g><text fill="#000000" font-family="sans-serif" font-size="14" lengthAdjust="spacing" textLength="264.4551" x="27" y="801.5157">handleLinkGeneration(HttpExchange)</text><g data-visibility-modifier="PRIVATE_METHOD"><rect fill="#F24D5C" height="6" style="stroke:#C82930;stroke-width:1;" width="6" x="15" y="811.4659"/></g><text fill="#000000" font-family="sans-serif" font-size="14" lengthAdjust="spacing" textLength="251.7197" x="27" y="817.8126">handleFileDownload(HttpExchange)</text></g><!--class AuthFilter--><g class="entity" data-qualified-name="AuthFilter" data-source-line="40" id="ent0013"><rect fill="#F1F1F1" height="113.1875" rx="2.5" ry="2.5" style="stroke:#181818;stroke-width:0.5;" width="257.1572" x="944.65" y="497.3"/><ellipse cx="1034.7271" cy="513.3" fill="#ADD1B2" rx="11" ry="11" style="stroke:#181818;stroke-width:1;"/><path d="M1037.6959,518.9406 Q1037.1178,519.2375 1036.4771,519.3781 Q1035.8365,519.5344 1035.1334,519.5344 Q1032.6334,519.5344 1031.3053,517.8938 Q1029.9928,516.2375 1029.9928,513.1125 Q1029.9928,509.9875 1031.3053,508.3312 Q1032.6334,506.675 1035.1334,506.675 Q1035.8365,506.675 1036.4771,506.8312 Q1037.1334,506.9875 1037.6959,507.2844 L1037.6959,510.0031 Q1037.0709,509.425 1036.4771,509.1594 Q1035.8834,508.8781 1035.2584,508.8781 Q1033.9146,508.8781 1033.2271,509.9562 Q1032.5396,511.0187 1032.5396,513.1125 Q1032.5396,515.2063 1033.2271,516.2844 Q1033.9146,517.3469 1035.2584,517.3469 Q1035.8834,517.3469 1036.4771,517.0813 Q1037.0709,516.8 1037.6959,516.2219 L1037.6959,518.9406 Z " fill="#000000"/><text fill="#000000" font-family="sans-serif" font-size="14" lengthAdjust="spacing" textLength="68.5029" x="1055.2271" y="518.1467">AuthFilter</text><line style="stroke:#181818;stroke-width:0.5;" x1="945.65" x2="1200.8072" y1="529.3" y2="529.3"/><g data-visibility-modifier="PRIVATE_FIELD"><rect fill="none" height="6" style="stroke:#C82930;stroke-width:1;" width="6" x="952.65" y="539.9484"/></g><text fill="#000000" font-family="sans-serif" font-size="14" lengthAdjust="spacing" textLength="136.4453" x="964.65" y="546.2951">verifier: JWTVerifier</text><line style="stroke:#181818;stroke-width:0.5;" x1="945.65" x2="1200.8072" y1="553.5969" y2="553.5969"/><g data-visibility-modifier="PUBLIC_METHOD"><ellipse cx="955.65" cy="567.2453" fill="#84BE84" rx="3" ry="3" style="stroke:#038048;stroke-width:1;"/></g><text fill="#000000" font-family="sans-serif" font-size="14" lengthAdjust="spacing" textLength="212.0029" x="964.65" y="570.592">doFilter(HttpExchange, Chain)</text><g data-visibility-modifier="PRIVATE_METHOD"><rect fill="#F24D5C" height="6" style="stroke:#C82930;stroke-width:1;" width="6" x="952.65" y="580.5422"/></g><text fill="#000000" font-family="sans-serif" font-size="14" lengthAdjust="spacing" textLength="231.1572" x="964.65" y="586.8889">getCookie(HttpExchange, String)</text><g data-visibility-modifier="PRIVATE_METHOD"><rect fill="#F24D5C" height="6" style="stroke:#C82930;stroke-width:1;" width="6" x="952.65" y="596.8391"/></g><text fill="#000000" font-family="sans-serif" font-size="14" lengthAdjust="spacing" textLength="224.0752" x="964.65" y="603.1857">isValidToken(Optional&lt;String&gt;)</text></g><!--class QueryHandler--><g class="entity" data-qualified-name="QueryHandler" data-source-line="47" id="ent0020"><rect fill="#F1F1F1" height="96.8906" rx="2.5" ry="2.5" style="stroke:#181818;stroke-width:0.5;" width="242.4531" x="494" y="910.27"/><ellipse cx="562.1406" cy="926.27" fill="#ADD1B2" rx="11" ry="11" style="stroke:#181818;stroke-width:1;"/><path d="M565.1094,931.9106 Q564.5313,932.2075 563.8906,932.3481 Q563.25,932.5044 562.5469,932.5044 Q560.0469,932.5044 558.7188,930.8638 Q557.4063,929.2075 557.4063,926.0825 Q557.4063,922.9575 558.7188,921.3013 Q560.0469,919.645 562.5469,919.645 Q563.25,919.645 563.8906,919.8013 Q564.5469,919.9575 565.1094,920.2544 L565.1094,922.9731 Q564.4844,922.395 563.8906,922.1294 Q563.2969,921.8481 562.6719,921.8481 Q561.3281,921.8481 560.6406,922.9263 Q559.9531,923.9888 559.9531,926.0825 Q559.9531,928.1763 560.6406,929.2544 Q561.3281,930.3169 562.6719,930.3169 Q563.2969,930.3169 563.8906,930.0513 Q564.4844,929.77 565.1094,929.1919 L565.1094,931.9106 Z " fill="#000000"/><text fill="#000000" font-family="sans-serif" font-size="14" lengthAdjust="spacing" textLength="97.6719" x="582.6406" y="931.1167">QueryHandler</text><line style="stroke:#181818;stroke-width:0.5;" x1="495" x2="735.4531" y1="942.27" y2="942.27"/><line style="stroke:#181818;stroke-width:0.5;" x1="495" x2="735.4531" y1="950.27" y2="950.27"/><g data-visibility-modifier="PUBLIC_METHOD"><ellipse cx="505" cy="963.9184" fill="#84BE84" rx="3" ry="3" style="stroke:#038048;stroke-width:1;"/></g><text fill="#000000" font-family="sans-serif" font-size="14" lengthAdjust="spacing" text-decoration="underline" textLength="180.6807" x="514" y="967.2651">query2SQL(String): String</text><g data-visibility-modifier="PRIVATE_METHOD"><rect fill="#F24D5C" height="6" style="stroke:#C82930;stroke-width:1;" width="6" x="502" y="977.2153"/></g><text fill="#000000" font-family="sans-serif" font-size="14" lengthAdjust="spacing" text-decoration="underline" textLength="216.4531" x="514" y="983.562">parseStatement(String): String</text><g data-visibility-modifier="PRIVATE_METHOD"><rect fill="#F24D5C" height="6" style="stroke:#C82930;stroke-width:1;" width="6" x="502" y="993.5122"/></g><text fill="#000000" font-family="sans-serif" font-size="14" lengthAdjust="spacing" text-decoration="underline" textLength="176.2441" x="514" y="999.8589">parseDate(String): String</text></g><!--class DBHandler--><g class="entity" data-qualified-name="DBHandler" data-source-line="53" id="ent0021"><rect fill="#F1F1F1" height="80.5938" rx="2.5" ry="2.5" style="stroke:#181818;stroke-width:0.5;" width="247.1084" x="197.67" y="918.41"/><ellipse cx="279.2193" cy="934.41" fill="#ADD1B2" rx="11" ry="11" style="stroke:#181818;stroke-width:1;"/><path d="M282.1881,940.0506 Q281.6099,940.3475 280.9693,940.4881 Q280.3287,940.6444 279.6256,940.6444 Q277.1256,940.6444 275.7974,939.0038 Q274.4849,937.3475 274.4849,934.2225 Q274.4849,931.0975 275.7974,929.4413 Q277.1256,927.785 279.6256,927.785 Q280.3287,927.785 280.9693,927.9413 Q281.6256,928.0975 282.1881,928.3944 L282.1881,931.1131 Q281.5631,930.535 280.9693,930.2694 Q280.3756,929.9881 279.7506,929.9881 Q278.4068,929.9881 277.7193,931.0663 Q277.0318,932.1288 277.0318,934.2225 Q277.0318,936.3163 277.7193,937.3944 Q278.4068,938.4569 279.7506,938.4569 Q280.3756,938.4569 280.9693,938.1913 Q281.5631,937.91 282.1881,937.3319 L282.1881,940.0506 Z " fill="#000000"/><text fill="#000000" font-family="sans-serif" font-size="14" lengthAdjust="spacing" textLength="75.5098" x="299.7193" y="939.2567">DBHandler</text><line style="stroke:#181818;stroke-width:0.5;" x1="198.67" x2="443.7784" y1="950.41" y2="950.41"/><line style="stroke:#181818;stroke-width:0.5;" x1="198.67" x2="443.7784" y1="958.41" y2="958.41"/><g data-visibility-modifier="PUBLIC_METHOD"><ellipse cx="208.67" cy="972.0584" fill="#84BE84" rx="3" ry="3" style="stroke:#038048;stroke-width:1;"/></g><text fill="#000000" font-family="sans-serif" font-size="14" lengthAdjust="spacing" text-decoration="underline" textLength="167.0566" x="217.67" y="975.4051">SQL(String): List&lt;Map&gt;</text><g data-visibility-modifier="PUBLIC_METHOD"><ellipse cx="208.67" cy="988.3553" fill="#84BE84" rx="3" ry="3" style="stroke:#038048;stroke-width:1;"/></g><text fill="#000000" font-family="sans-serif" font-size="14" lengthAdjust="spacing" text-decoration="underline" textLength="221.1084" x="217.67" y="991.702">getNameByHash(String): String</text></g><!--class Log--><g class="entity" data-qualified-name="Log" data-source-line="58" id="ent0022"><rect fill="#F1F1F1" height="64.2969" rx="2.5" ry="2.5" style="stroke:#181818;stroke-width:0.5;" width="124.3623" x="1109.05" y="926.56"/><ellipse cx="1154.3552" cy="942.56" fill="#ADD1B2" rx="11" ry="11" style="stroke:#181818;stroke-width:1;"/><path d="M1157.3239,948.2006 Q1156.7458,948.4975 1156.1052,948.6381 Q1155.4646,948.7944 1154.7614,948.7944 Q1152.2614,948.7944 1150.9333,947.1538 Q1149.6208,945.4975 1149.6208,942.3725 Q1149.6208,939.2475 1150.9333,937.5913 Q1152.2614,935.935 1154.7614,935.935 Q1155.4646,935.935 1156.1052,936.0913 Q1156.7614,936.2475 1157.3239,936.5444 L1157.3239,939.2631 Q1156.6989,938.685 1156.1052,938.4194 Q1155.5114,938.1381 1154.8864,938.1381 Q1153.5427,938.1381 1152.8552,939.2163 Q1152.1677,940.2788 1152.1677,942.3725 Q1152.1677,944.4663 1152.8552,945.5444 Q1153.5427,946.6069 1154.8864,946.6069 Q1155.5114,946.6069 1156.1052,946.3413 Q1156.6989,946.06 1157.3239,945.4819 L1157.3239,948.2006 Z " fill="#000000"/><text fill="#000000" font-family="sans-serif" font-size="14" lengthAdjust="spacing" textLength="25.252" x="1174.8552" y="947.4067">Log</text><line style="stroke:#181818;stroke-width:0.5;" x1="1110.05" x2="1232.4123" y1="958.56" y2="958.56"/><line style="stroke:#181818;stroke-width:0.5;" x1="1110.05" x2="1232.4123" y1="966.56" y2="966.56"/><g data-visibility-modifier="PUBLIC_METHOD"><ellipse cx="1120.05" cy="980.2084" fill="#84BE84" rx="3" ry="3" style="stroke:#038048;stroke-width:1;"/></g><text fill="#000000" font-family="sans-serif" font-size="14" lengthAdjust="spacing" text-decoration="underline" textLength="98.3623" x="1129.05" y="983.5551">println(String)</text></g><!--class HttpServer--><g class="entity" data-qualified-name="HttpServer" data-source-line="62" id="ent0023"><rect fill="#F1F1F1" height="48" rx="2.5" ry="2.5" style="stroke:#181818;stroke-width:0.5;" width="108.3027" x="864.08" y="298.3"/><ellipse cx="879.08" cy="314.3" fill="#ADD1B2" rx="11" ry="11" style="stroke:#181818;stroke-width:1;"/><path d="M882.0488,319.9406 Q881.4706,320.2375 880.83,320.3781 Q880.1894,320.5344 879.4863,320.5344 Q876.9863,320.5344 875.6581,318.8937 Q874.3456,317.2375 874.3456,314.1125 Q874.3456,310.9875 875.6581,309.3312 Q876.9863,307.675 879.4863,307.675 Q880.1894,307.675 880.83,307.8312 Q881.4863,307.9875 882.0488,308.2844 L882.0488,311.0031 Q881.4238,310.425 880.83,310.1594 Q880.2363,309.8781 879.6113,309.8781 Q878.2675,309.8781 877.58,310.9562 Q876.8925,312.0187 876.8925,314.1125 Q876.8925,316.2062 877.58,317.2844 Q878.2675,318.3469 879.6113,318.3469 Q880.2363,318.3469 880.83,318.0812 Q881.4238,317.8 882.0488,317.2219 L882.0488,319.9406 Z " fill="#000000"/><text fill="#000000" font-family="sans-serif" font-size="14" lengthAdjust="spacing" textLength="76.3027" x="893.08" y="319.1467">HttpServer</text><line style="stroke:#181818;stroke-width:0.5;" x1="865.08" x2="971.3827" y1="330.3" y2="330.3"/><line style="stroke:#181818;stroke-width:0.5;" x1="865.08" x2="971.3827" y1="338.3" y2="338.3"/></g><!--reverse link HttpHandler to StaticFileHandler--><g class="link" data-entity-1="ent0002" data-entity-2="ent0005" data-link-type="extension" data-source-line="13" id="lnk6"><path d="M775.23,596.35 C775.23,630.86 775.23,677.77 775.23,719.76" fill="none" id="HttpHandler-backto-StaticFileHandler" style="stroke:#181818;stroke-width:1;stroke-dasharray:7,7;"/><polygon fill="none" points="775.23,578.35,769.23,596.35,781.23,596.35,775.23,578.35" style="stroke:#181818;stroke-width:1;"/></g><!--reverse link HttpHandler to LoginHandler--><g class="link" data-entity-1="ent0002" data-entity-2="ent0007" data-link-type="extension" data-source-line="18" id="lnk8"><path d="M817.8441,589.7448 C850.1641,616.1748 890.35,649.05 936.98,687.19" fill="none" id="HttpHandler-backto-LoginHandler" style="stroke:#181818;stroke-width:1;stroke-dasharray:7,7;"/><polygon fill="none" points="803.91,578.35,814.0459,594.3895,821.6424,585.1001,803.91,578.35" style="stroke:#181818;stroke-width:1;"/></g><!--reverse link HttpHandler to SearchAPIHandler--><g class="link" data-entity-1="ent0002" data-entity-2="ent0009" data-link-type="extension" data-source-line="27" id="lnk10"><path d="M727.9052,588.8436 C682.8752,621.1536 615.34,669.6 557.02,711.45" fill="none" id="HttpHandler-backto-SearchAPIHandler" style="stroke:#181818;stroke-width:1;stroke-dasharray:7,7;"/><polygon fill="none" points="742.53,578.35,724.4073,583.9687,731.4031,593.7185,742.53,578.35" style="stroke:#181818;stroke-width:1;"/></g><!--reverse link HttpHandler to DownloadHandler--><g class="link" data-entity-1="ent0002" data-entity-2="ent0011" data-link-type="extension" data-source-line="33" id="lnk12"><path d="M698.8636,573.5003 C610.5736,595.4903 456.64,636.18 315.23,687.48 C308.54,689.91 301.74,692.48 294.9,695.15" fill="none" id="HttpHandler-backto-DownloadHandler" style="stroke:#181818;stroke-width:1;stroke-dasharray:7,7;"/><polygon fill="none" points="716.33,569.15,697.4135,567.6781,700.3137,579.3224,716.33,569.15" style="stroke:#181818;stroke-width:1;"/></g><!--reverse link Filter to AuthFilter--><g class="link" data-entity-1="ent0014" data-entity-2="ent0013" data-link-type="extension" data-source-line="41" id="lnk19"><path d="M1103.6164,364.3408 C1097.9764,399.3408 1090.01,448.78 1082.24,496.98" fill="none" id="Filter-backto-AuthFilter" style="stroke:#181818;stroke-width:1;"/><polygon fill="none" points="1106.48,346.57,1097.6928,363.3862,1109.54,365.2953,1106.48,346.57" style="stroke:#181818;stroke-width:1;"/></g><!--link App to HttpServer--><g class="link" data-entity-1="ent0004" data-entity-2="ent0023" data-link-type="dependency" data-source-line="62" id="lnk24"><path codeLine="62" d="M1103.32,71.78 C1090.22,87.95 1074.19,108.02 1060.23,126.3 C1013.58,187.36 964.3097,256.185 938.1897,293.035" fill="none" id="App-to-HttpServer" style="stroke:#181818;stroke-width:1;stroke-dasharray:7,7;"/><polygon fill="#181818" points="934.72,297.93,943.1879,292.9006,937.6114,293.8508,936.6612,288.2743,934.72,297.93" style="stroke:#181818;stroke-width:1;"/><text fill="#000000" font-family="sans-serif" font-size="13" lengthAdjust="spacing" textLength="48.3247" x="1079.23" y="114.3669">creates</text></g><!--link HttpServer to HttpHandler--><g class="link" data-entity-1="ent0023" data-entity-2="ent0002" data-link-type="dependency" data-source-line="63" id="lnk25"><path codeLine="63" d="M903.73,346.57 C876.32,390.58 820.3724,480.4073 792.9324,524.4573" fill="none" id="HttpServer-to-HttpHandler" style="stroke:#181818;stroke-width:1;stroke-dasharray:7,7;"/><polygon fill="#181818" points="789.76,529.55,797.9138,524.0258,792.4037,525.3061,791.1235,519.796,789.76,529.55" style="stroke:#181818;stroke-width:1;"/><text fill="#000000" font-family="sans-serif" font-size="13" lengthAdjust="spacing" textLength="29.7832" x="839.23" y="463.3669">uses</text></g><!--link HttpServer to AuthFilter--><g class="link" data-entity-1="ent0023" data-entity-2="ent0013" data-link-type="dependency" data-source-line="64" id="lnk26"><path codeLine="64" d="M933.94,346.57 C957.57,381.57 999.5828,443.8071 1032.1228,492.0071" fill="none" id="HttpServer-to-AuthFilter" style="stroke:#181818;stroke-width:1;stroke-dasharray:7,7;"/><polygon fill="#181818" points="1035.48,496.98,1033.7594,487.2826,1032.6823,492.836,1027.129,491.7588,1035.48,496.98" style="stroke:#181818;stroke-width:1;"/><text fill="#000000" font-family="sans-serif" font-size="13" lengthAdjust="spacing" textLength="29.7832" x="1014.23" y="463.3669">uses</text></g><!--link App to Config--><g class="link" data-entity-1="ent0004" data-entity-2="ent0003" data-link-type="dependency" data-source-line="66" id="lnk27"><path codeLine="66" d="M1165.28,71.65 C1216.25,119.87 1303.23,217.4 1303.23,321.3 C1303.23,321.3 1303.23,321.3 1303.23,959.71 C1303.23,1047.65 1204.5098,1087.9329 1123.6398,1107.0029" fill="none" id="App-to-Config" style="stroke:#181818;stroke-width:1;stroke-dasharray:7,7;"/><polygon fill="#181818" points="1117.8,1108.38,1127.4778,1110.2076,1122.6665,1107.2324,1125.6417,1102.4211,1117.8,1108.38" style="stroke:#181818;stroke-width:1;"/><text fill="#000000" font-family="sans-serif" font-size="13" lengthAdjust="spacing" textLength="29.7832" x="1304.23" y="653.5469">uses</text></g><!--link LoginHandler to Config--><g class="link" data-entity-1="ent0007" data-entity-2="ent0003" data-link-type="dependency" data-source-line="67" id="lnk28"><path codeLine="67" d="M1025.23,833.34 C1025.23,908.62 1025.23,1018.01 1025.23,1078.06" fill="none" id="LoginHandler-to-Config" style="stroke:#181818;stroke-width:1;stroke-dasharray:7,7;"/><polygon fill="#181818" points="1025.23,1084.06,1029.23,1075.06,1025.23,1079.06,1021.23,1075.06,1025.23,1084.06" style="stroke:#181818;stroke-width:1;"/><text fill="#000000" font-family="sans-serif" font-size="13" lengthAdjust="spacing" textLength="29.7832" x="1026.23" y="963.2769">uses</text></g><!--link QueryHandler to Config--><g class="link" data-entity-1="ent0020" data-entity-2="ent0003" data-link-type="dependency" data-source-line="68" id="lnk29"><path codeLine="68" d="M735.19,1007.62 C798.29,1032.82 868.888,1061.0146 927.328,1084.3546" fill="none" id="QueryHandler-to-Config" style="stroke:#181818;stroke-width:1;stroke-dasharray:7,7;"/><polygon fill="#181818" points="932.9,1086.58,926.0255,1079.5272,928.2566,1084.7255,923.0583,1086.9566,932.9,1086.58" style="stroke:#181818;stroke-width:1;"/><text fill="#000000" font-family="sans-serif" font-size="13" lengthAdjust="spacing" textLength="29.7832" x="846.23" y="1050.2269">uses</text></g><!--link SearchAPIHandler to QueryHandler--><g class="link" data-entity-1="ent0009" data-entity-2="ent0020" data-link-type="dependency" data-source-line="69" id="lnk30"><path codeLine="69" d="M520.65,809.15 C540.16,839.8 562.167,874.3791 581.667,904.9991" fill="none" id="SearchAPIHandler-to-QueryHandler" style="stroke:#181818;stroke-width:1;stroke-dasharray:7,7;"/><polygon fill="#181818" points="584.89,910.06,583.4295,900.32,582.2042,905.8426,576.6816,904.6173,584.89,910.06" style="stroke:#181818;stroke-width:1;"/><text fill="#000000" font-family="sans-serif" font-size="13" lengthAdjust="spacing" textLength="29.7832" x="565.23" y="876.3369">uses</text></g><!--link SearchAPIHandler to DBHandler--><g class="link" data-entity-1="ent0009" data-entity-2="ent0021" data-link-type="dependency" data-source-line="70" id="lnk31"><path codeLine="70" d="M449.1,809.15 C420.38,842.52 386.3941,882.0025 359.3241,913.4525" fill="none" id="SearchAPIHandler-to-DBHandler" style="stroke:#181818;stroke-width:1;stroke-dasharray:7,7;"/><polygon fill="#181818" points="355.41,918,364.3129,913.7882,358.6718,914.2104,358.2496,908.5694,355.41,918" style="stroke:#181818;stroke-width:1;"/><text fill="#000000" font-family="sans-serif" font-size="13" lengthAdjust="spacing" textLength="29.7832" x="402.23" y="876.3369">uses</text></g><!--link DownloadHandler to DBHandler--><g class="link" data-entity-1="ent0011" data-entity-2="ent0021" data-link-type="dependency" data-source-line="71" id="lnk32"><path codeLine="71" d="M207.33,825.39 C233.63,855.94 260.3458,886.9826 283.2158,913.5526" fill="none" id="DownloadHandler-to-DBHandler" style="stroke:#181818;stroke-width:1;stroke-dasharray:7,7;"/><polygon fill="#181818" points="287.13,918.1,284.2903,908.6694,283.8682,914.3105,278.2271,913.8883,287.13,918.1" style="stroke:#181818;stroke-width:1;"/><text fill="#000000" font-family="sans-serif" font-size="13" lengthAdjust="spacing" textLength="29.7832" x="253.23" y="876.3369">uses</text></g><!--link AuthFilter to LoginHandler--><g class="link" data-entity-1="ent0013" data-entity-2="ent0007" data-link-type="dependency" data-source-line="72" id="lnk33"><path codeLine="72" d="M1060.11,610.77 C1054.59,634.3 1049.4606,656.1486 1043.5806,681.2086" fill="none" id="AuthFilter-to-LoginHandler" style="stroke:#181818;stroke-width:1;stroke-dasharray:7,7;"/><polygon fill="#181818" points="1042.21,687.05,1048.1601,679.2017,1043.3522,682.1822,1040.3717,677.3742,1042.21,687.05" style="stroke:#181818;stroke-width:1;"/><text fill="#000000" font-family="sans-serif" font-size="13" lengthAdjust="spacing" textLength="112.6011" x="1052.23" y="653.5469">uses (JWT config)</text></g><!--link AuthFilter to Log--><g class="link" data-entity-1="ent0013" data-entity-2="ent0022" data-link-type="dependency" data-source-line="73" id="lnk34"><path codeLine="73" d="M1153.06,610.76 C1161.18,619.75 1168.26,629.69 1173.23,640.48 C1217.45,736.54 1195.6262,861.1195 1181.2462,920.3195" fill="none" id="AuthFilter-to-Log" style="stroke:#181818;stroke-width:1;stroke-dasharray:7,7;"/><polygon fill="#181818" points="1179.83,926.15,1185.8413,918.3485,1181.0102,921.2913,1178.0674,916.4601,1179.83,926.15" style="stroke:#181818;stroke-width:1;"/><text fill="#000000" font-family="sans-serif" font-size="13" lengthAdjust="spacing" textLength="29.7832" x="1199.23" y="764.9369">uses</text></g><!--link SearchAPIHandler to Log--><g class="link" data-entity-1="ent0009" data-entity-2="ent0022" data-link-type="dependency" data-source-line="74" id="lnk35"><path codeLine="74" d="M597.94,809.26 C620.23,818.07 643.77,826.58 666.23,833.27 C838.9,884.69 892.33,856.29 1064.23,910.27 C1078.96,914.89 1088.8753,918.563 1103.2653,924.803" fill="none" id="SearchAPIHandler-to-Log" style="stroke:#181818;stroke-width:1;stroke-dasharray:7,7;"/><polygon fill="#181818" points="1108.77,927.19,1102.1043,919.9396,1104.1827,925.2008,1098.9215,927.2793,1108.77,927.19" style="stroke:#181818;stroke-width:1;"/><text fill="#000000" font-family="sans-serif" font-size="13" lengthAdjust="spacing" textLength="29.7832" x="936.23" y="876.3369">uses</text></g><!--SRC=[dPHDRwCm48Rl-HK-fah3OO-egaIJR6b5cpP4tSDgjR9W0bR0PcspswhgVz-nWM3ojTNUCFDuvfqlCwv1RcW29DIw2YbF2v2ZKL9GfSXCy0tBoFk8a7UbgMR91vaKWgRZM4l6iuk10J-a3eLUmG3vwBm5LMLTJKhAU6l-_eDGcIc7Ygsxhwo0LWnXPLL02LmhLwDrDMs2pvdqIUFG-CyjCJRmuZN1KmPEW4XaZF-tx_jlwv_nOhPQhFV_1j7jSdMt3Xzy4XIPa4pdvKarnZt8ts35FD7iYBsvPu5JgSH0PP87JtUVIEUC3fwkG5M2gw7raZ2kBqdVwWbLz_7oSHmnfQyUQ7NjI9cBFzoq_JE5tM1pLqBeOMcdQUiYOdohV3DyIIqbkWYfoZ7SkIJQOk7DM-0WiN62dwBCR7LoJrKsg7ME7Eu6WLUD5L8a4QMdQkvnq5wEjsp_fDTIDZ4yimq3p0e7ugKz6DcfQB2z-ivot0IhB0Cz4sBBzZlG5t_Ar0ijMBeMM-3ZPMKofCLL0xYTUAv1lhdrxZVqbp5zYP-ZRZcTyk-eQKMb0hE6jd__HkT87b3zODmSrp9GiPke0O95UQGbtBoP0JWT0LTaptU5W2wu-mIPnyVphkqmnhPpn2U91DIkHixFZkb4-wHMXuGp7Ysm2z2-cUtlmMDpQ1xqwj1yiDy66Tmv1_QLRwdz7JqAEQaP-o211Y5Zd6vS1wFquWX_LbHl_mi0]--></g></svg>